<?xml version="1.0" encoding="UTF-8" standalone="no"?>
<svg
   xmlns:osb="http://www.openswatchbook.org/uri/2009/osb"
   xmlns:dc="http://purl.org/dc/elements/1.1/"
   xmlns:cc="http://creativecommons.org/ns#"
   xmlns:rdf="http://www.w3.org/1999/02/22-rdf-syntax-ns#"
   xmlns:svg="http://www.w3.org/2000/svg"
   xmlns="http://www.w3.org/2000/svg"
   xmlns:xlink="http://www.w3.org/1999/xlink"
   xmlns:sodipodi="http://sodipodi.sourceforge.net/DTD/sodipodi-0.dtd"
   xmlns:inkscape="http://www.inkscape.org/namespaces/inkscape"
   width="16"
   height="16"
   viewBox="0 0 16 16"
   fill="red"
   version="1.1"
   id="svg4"
   sodipodi:docname="jsdoc-level1.svg"
   inkscape:version="1.0.2-2 (e86c870879, 2021-01-15)">
  <metadata
     id="metadata10">
    <rdf:RDF>
      <cc:Work
         rdf:about="">
        <dc:format>image/svg+xml</dc:format>
        <dc:type
           rdf:resource="http://purl.org/dc/dcmitype/StillImage" />
      </cc:Work>
    </rdf:RDF>
  </metadata>
  <defs
     id="defs8">
    <linearGradient
       id="linearGradient3207"
       osb:paint="solid">
      <stop
         style="stop-color:#000000;stop-opacity:1;"
         offset="0"
         id="stop3205" />
    </linearGradient>
    <linearGradient
       inkscape:collect="always"
       xlink:href="#linearGradient3207"
       id="linearGradient3209"
       x1="15.668256"
       y1="12.161224"
       x2="47.704484"
       y2="12.161224"
       gradientUnits="userSpaceOnUse"
       gradientTransform="matrix(0.28093199,0,0,0.30850085,-0.98057843,3.5734039)" />
  </defs>
  <sodipodi:namedview
     pagecolor="#ffffff"
     bordercolor="#666666"
     borderopacity="1"
     objecttolerance="10"
     gridtolerance="10"
     guidetolerance="10"
     inkscape:pageopacity="0"
     inkscape:pageshadow="2"
     inkscape:window-width="1920"
     inkscape:window-height="1009"
     id="namedview6"
     showgrid="false"
     inkscape:zoom="52.5625"
     inkscape:cx="11.55618"
     inkscape:cy="6.7364912"
     inkscape:window-x="1072"
     inkscape:window-y="-8"
     inkscape:window-maximized="1"
     inkscape:current-layer="layer1" />
  <circle
     cx="8.0807161"
     cy="7.7847567"
     stroke="#000000"
     stroke-width="1"
     fill="#ff0000"
     id="circle2"
     r="7" />
  <g
     inkscape:groupmode="layer"
     id="layer1"
     inkscape:label="Layer 1">
    <path
       id="path128"
       d="m 10.909594,2.8253912 c -0.179021,-0.00341 -0.275951,0.028369 -0.447836,0.1447276 -0.136319,0.1369306 -0.136319,0.1369306 -0.282822,0.2152613 -0.144822,0.081256 -0.2702826,0.1691313 -0.3959526,0.2754081 L 9.7297456,3.6127376 C 9.5753422,3.6701124 9.4752131,3.7027326 9.3575014,3.8169192 L 9.2572644,3.9419609 C 9.1160004,4.1172075 8.9806492,4.2957315 8.848003,4.4769487 8.7283577,4.6422616 8.6053213,4.8031839 8.4753424,4.9612874 8.3854641,5.0694596 8.2964449,5.177525 8.2110276,5.2889274 8.1049757,5.4280971 8.0012307,5.5608571 7.8739281,5.6832441 7.7272504,5.8167391 7.6138147,5.9162642 7.523727,6.0914095 L 7.4937822,6.1958753 C 7.3432662,6.1513851 7.3432541,6.1513733 7.2411139,6.1038744 L 7.139631,6.0552031 7.027646,6.0016845 6.9115014,5.9457915 C 6.835595,5.909456 6.759691,5.8731173 6.6837875,5.8367763 6.5770086,5.7854688 6.4701943,5.7342803 6.3632205,5.6833427 L 6.2693268,5.6387276 V 5.5374283 C 6.0723652,5.3936174 5.9372845,5.2823567 5.820138,5.0720834 5.7479937,4.9409866 5.6740262,4.8130415 5.5936721,4.6862746 L 5.4973879,4.5465923 5.4092135,4.4166042 c -0.098156,-0.09477 -0.098156,-0.09477 -0.2362402,-0.1151487 -0.1281019,0.020379 -0.1281019,0.020379 -0.2345764,0.1216782 -0.02962,0.1951764 0.025207,0.3363147 0.1135455,0.5122352 l 0.049492,0.092396 C 5.2067844,5.2251008 5.3070431,5.4086261 5.4874042,5.5532563 5.5997058,5.6308299 5.7026204,5.705975 5.8049556,5.7958207 6.0339194,6.0016115 6.2609465,6.1799559 6.528857,6.3383275 6.7157155,6.4432828 6.8769069,6.5407289 7.0146466,6.7023721 6.990029,6.9443541 6.9457809,7.0900068 6.7617704,7.2595194 6.6045314,7.3943372 6.4836629,7.5367833 6.3591635,7.6993412 6.2935319,7.7850569 6.226831,7.8700366 6.1595241,7.9545692 5.9922054,8.1643302 5.8262214,8.3735262 5.6716551,8.5920433 5.478463,8.8677465 5.2864823,9.1186451 5.0382153,9.3519875 4.7869861,9.5809536 4.5082583,9.8122326 4.3428039,10.107382 l -0.043257,0.08982 H 4.1930758 l -0.078815,0.105849 c -0.1255906,0.199325 -0.2471802,0.39649 -0.4011517,0.577329 -0.1534511,0.171809 -0.2884766,0.298638 -0.2919728,0.532414 0.026621,0.151951 0.026621,0.151951 0.079856,0.202601 0.3327323,0.211039 0.3326923,0.211061 1.8673579,0.209523 0.093485,-1.01e-4 0.1870495,-1.52e-4 0.2805352,-1.01e-4 0.1989118,1.51e-4 0.397823,2.16e-4 0.5967348,0 0.2533977,-2.88e-4 0.5067923,-5.24e-4 0.76019,-2.17e-4 0.9865514,0.0012 1.9727908,-10e-5 2.9590312,-0.026 l 0.1203036,-0.0032 c 0.07768,-0.0019 0.155345,-0.004 0.233015,-0.0059 l 0.210455,-0.0064 c 0.106476,-0.0033 0.212924,-0.0077 0.319113,-0.01582 0.05323,-0.05065 0.05323,-0.05065 0.09317,-0.145617 0.0133,-0.107605 0.01327,-0.107582 -0.04066,-0.189411 -0.130765,-0.08669 -0.233762,-0.08713 -0.390442,-0.08676 l -0.116664,0.0024 c -0.08468,5.87e-4 -0.169444,0.0012 -0.254125,0.0018 -0.1882176,0.0027 -0.3763676,0.0051 -0.5646044,0.0064 -0.099229,6.16e-4 -0.1984617,0.0013 -0.297692,0.0019 -0.5380885,0.0045 -1.0758939,0.0022 -1.6139598,-0.0037 l -0.1415162,-0.0017 c -0.235533,-0.0024 -0.4711098,-0.0052 -0.7066404,-0.008 -0.2401272,-0.0028 -0.4802353,-0.0054 -0.7203662,-0.008 -0.1928057,-0.0019 -0.3856327,-0.004 -0.5784356,-0.0062 -0.091275,-9.49e-4 -0.1825009,-0.0022 -0.2737762,-0.0032 -0.1286075,-0.0013 -0.2572619,-0.0024 -0.3858657,-0.0041 l -0.1171842,-0.0016 c -0.2082209,-0.0023 -0.3995911,-0.0013 -0.599127,-0.06102 0.056256,-0.08028 0.1123189,-0.160632 0.1671983,-0.241773 l 0.06655,-0.09913 c 0.050746,-0.07525 0.101489,-0.150496 0.1522246,-0.225747 0.221094,-0.33009 0.4371632,-0.680401 0.7363793,-0.9522574 0.09023,-0.06569 0.1787462,-0.129382 0.2618189,-0.2031917 L 5.5772478,9.3864808 H 5.6837169 C 6.2343901,9.0139626 6.6720514,8.5108485 6.9728474,7.9411762 7.1320349,7.6387065 7.3006925,7.2859655 7.5988007,7.0888358 7.7051663,7.0464948 7.7051663,7.0464821 7.8038474,7.0878488 7.9876131,7.1948744 8.153722,7.2723801 8.3655411,7.3133985 8.6311517,7.3629897 8.886139,7.4353192 9.1441353,7.5128319 l 0.1744763,0.056588 0.1815474,0.057378 c 0.3755624,0.122811 0.660579,0.07346 1.012339,-0.082604 l 0.102319,-0.047189 c 0.188603,-0.082692 0.36505,-0.1671452 0.532162,-0.286092 l 0.126647,-0.10336 c 0.234802,-0.1759172 0.469023,-0.3517491 0.68709,-0.5464633 0.335771,-0.3438989 0.456447,-0.7518439 0.460419,-1.2138137 l -0.0029,-0.154917 c -0.0043,-0.4051558 -0.02683,-0.765328 -0.179674,-1.1465438 L 12.178676,3.9166182 C 12.134861,3.8085061 12.090151,3.7063583 12.032274,3.6044101 11.794728,3.2724721 11.417578,2.9130153 10.991859,2.8288358 c -0.02938,-0.00179 -0.05668,-0.00295 -0.08224,-0.00346 z m 0.20432,0.5847473 c 0.15076,0.1019971 0.274476,0.1999213 0.390128,0.3371375 0.371548,0.5279972 0.561704,1.1045508 0.461667,1.7395023 -0.242893,0.6948908 -0.77046,1.1470351 -1.430958,1.4822963 l -0.112921,0.05619 C 10.08898,7.1960609 9.8345024,7.2600915 9.4535782,7.186315 L 9.3570861,7.1518888 9.2383417,7.1103406 C 9.1557642,7.0804222 9.0730806,7.0507617 8.9899363,7.0222969 8.9145317,6.9966696 8.8391663,6.9708942 8.7638861,6.9449372 L 8.6483657,6.9049715 C 8.5096747,6.8576497 8.3751969,6.8073606 8.2391044,6.7530221 8.1075676,6.6786233 8.0432443,6.6410889 7.9858125,6.5065001 7.9617339,6.3969518 7.9617699,6.3969512 8.0259473,6.3060776 8.1475911,6.1671134 8.2669031,6.0273079 8.3770844,5.8799074 L 8.4595395,5.7653522 C 8.5147817,5.6894203 8.5699604,5.6134451 8.6250741,5.5374283 l 0.085263,-0.1189082 0.081936,-0.1121814 c 0.068684,-0.099102 0.068684,-0.099102 0.1389162,-0.1741086 H 9.0376637 C 9.0289137,5.024958 9.0289137,5.024958 9.1019217,4.923102 l 0.08547,-0.123261 C 9.2677957,4.6771732 9.2677957,4.6771732 9.3570842,4.5750827 l 0.1597106,-0.05065 c 0,-0.1704444 0.099067,-0.2821783 0.2129488,-0.4051984 0.3115184,-0.2523836 0.9512584,-0.709096 1.3841674,-0.709096 z"
       style="fill:url(#linearGradient3209);fill-opacity:1;stroke-width:0.0519272" />
  </g>
</svg>
