<?xml version="1.0" encoding="UTF-8" standalone="no"?>
<svg
   xmlns:osb="http://www.openswatchbook.org/uri/2009/osb"
   xmlns:dc="http://purl.org/dc/elements/1.1/"
   xmlns:cc="http://creativecommons.org/ns#"
   xmlns:rdf="http://www.w3.org/1999/02/22-rdf-syntax-ns#"
   xmlns:svg="http://www.w3.org/2000/svg"
   xmlns="http://www.w3.org/2000/svg"
   xmlns:xlink="http://www.w3.org/1999/xlink"
   xmlns:sodipodi="http://sodipodi.sourceforge.net/DTD/sodipodi-0.dtd"
   xmlns:inkscape="http://www.inkscape.org/namespaces/inkscape"
   width="16"
   height="16"
   viewBox="0 0 16 16"
   fill="green"
   version="1.1"
   id="svg4"
   sodipodi:docname="jsdoc-level3.svg"
   inkscape:version="1.0.2-2 (e86c870879, 2021-01-15)">
  <metadata
     id="metadata10">
    <rdf:RDF>
      <cc:Work
         rdf:about="">
        <dc:format>image/svg+xml</dc:format>
        <dc:type
           rdf:resource="http://purl.org/dc/dcmitype/StillImage" />
      </cc:Work>
    </rdf:RDF>
  </metadata>
  <defs
     id="defs8">
    <linearGradient
       id="linearGradient848"
       osb:paint="solid">
      <stop
         style="stop-color:#000000;stop-opacity:1;"
         offset="0"
         id="stop846" />
    </linearGradient>
    <linearGradient
       inkscape:collect="always"
       xlink:href="#linearGradient848"
       id="linearGradient850"
       x1="3.5122246"
       y1="7.8214958"
       x2="12.512223"
       y2="7.8214958"
       gradientUnits="userSpaceOnUse"
       gradientTransform="translate(-0.03804994,0.03804994)" />
  </defs>
  <sodipodi:namedview
     pagecolor="#ffffff"
     bordercolor="#666666"
     borderopacity="1"
     objecttolerance="10"
     gridtolerance="10"
     guidetolerance="10"
     inkscape:pageopacity="0"
     inkscape:pageshadow="2"
     inkscape:window-width="1920"
     inkscape:window-height="1009"
     id="namedview6"
     showgrid="false"
     inkscape:zoom="26.28125"
     inkscape:cx="-2.4513442"
     inkscape:cy="5.930731"
     inkscape:window-x="1072"
     inkscape:window-y="-8"
     inkscape:window-maximized="1"
     inkscape:current-layer="layer1" />
  <circle
     cx="8"
     cy="8"
     r="7"
     stroke="black"
     stroke-width="1"
     fill="green"
     id="circle2" />
  <g
     inkscape:groupmode="layer"
     id="layer1"
     inkscape:label="Layer 1">
    <path
       id="path128"
       d="M 10.962631,3.3597899 C 10.783608,3.3563799 10.686677,3.3881579 10.514793,3.5045176 10.378475,3.6414484 10.378475,3.6414484 10.231971,3.7197789 10.08715,3.8010349 9.9616881,3.8889101 9.8360189,3.9951868 L 9.7827819,4.1471357 C 9.6283782,4.2045107 9.5282489,4.2371307 9.4105373,4.3513175 L 9.3103016,4.476359 C 9.1690378,4.6516057 9.0336872,4.8301297 8.9010408,5.0113466 8.7813953,5.1766592 8.6583593,5.3375815 8.52838,5.4956845 8.438502,5.6038573 8.3494829,5.7119223 8.2640657,5.823325 8.1580136,5.9624941 8.0542684,6.0952543 7.9269658,6.2176408 7.7802883,6.3511359 7.6668528,6.4506613 7.5767651,6.6258064 L 7.5468201,6.7302715 C 7.3963039,6.6857825 7.3962912,6.6857695 7.2941515,6.6382705 L 7.1926681,6.5895995 7.0806824,6.5360815 6.9645379,6.4801885 C 6.8886319,6.4438525 6.8127275,6.4075145 6.736824,6.3711728 6.6300457,6.3198658 6.523231,6.2686772 6.4162571,6.2177398 L 6.3223641,6.1731248 V 6.0718253 C 6.125402,5.9280149 5.990321,5.8167543 5.8731752,5.606481 5.8010302,5.475384 5.7270628,5.347439 5.646709,5.2206726 L 5.550425,5.08099 5.462251,4.9510024 C 5.364095,4.8562314 5.364095,4.8562314 5.2260109,4.8358534 5.0979091,4.8562314 5.0979091,4.8562314 4.9914345,4.9575313 4.9618135,5.1527078 5.0166385,5.293846 5.1049795,5.4697661 l 0.049494,0.092397 c 0.1053501,0.1973355 0.2056091,0.3808608 0.3859699,0.5254906 0.112301,0.077575 0.2152164,0.1527186 0.3175517,0.2425649 0.2289631,0.2057903 0.4559904,0.3841348 0.723901,0.5425058 C 6.7687547,6.9776797 6.9299455,7.0751258 7.0676856,7.2367692 7.0430706,7.4787509 6.9988226,7.6244037 6.8148087,7.793916 6.6575699,7.9287337 6.5367017,8.0711797 6.4122024,8.2337375 6.3465694,8.3194535 6.2798704,8.4044326 6.212563,8.488965 6.0452445,8.6987262 5.8792605,8.9079219 5.7246938,9.1264389 5.5315023,9.402142 5.3395217,9.6530404 5.0912541,9.8863828 4.8400255,10.115349 4.5612977,10.346627 4.3958432,10.641776 l -0.043255,0.08982 H 4.246114 l -0.078816,0.10585 c -0.1255893,0.199324 -0.2471792,0.396489 -0.4011505,0.577327 -0.1534514,0.171809 -0.2884767,0.298639 -0.2919728,0.532416 0.026619,0.151949 0.026619,0.151949 0.079856,0.202599 0.3327324,0.21104 0.3326921,0.211062 1.8673574,0.209524 0.093485,-1.01e-4 0.18705,-1.54e-4 0.2805351,-1.01e-4 0.1989123,1.53e-4 0.3978228,1.95e-4 0.5967354,0 0.2533971,-3.08e-4 0.5067922,-5.19e-4 0.7601894,-2.1e-4 0.9865511,0.0012 1.9727907,-1.01e-4 2.959033,-0.02602 l 0.120303,-0.0031 c 0.07767,-0.002 0.155345,-0.0039 0.233017,-0.0059 l 0.210453,-0.0063 c 0.106475,-0.0032 0.212924,-0.0077 0.319112,-0.01583 0.05324,-0.05065 0.05324,-0.05065 0.09317,-0.145618 0.01331,-0.107628 0.01328,-0.107617 -0.04066,-0.189439 -0.130764,-0.08669 -0.233762,-0.08712 -0.390441,-0.08676 l -0.116664,0.0026 c -0.08468,5.57e-4 -0.169444,0.0011 -0.254125,0.0018 -0.188217,0.0028 -0.3763687,0.0051 -0.5646053,0.0063 -0.099229,6.31e-4 -0.198462,0.0013 -0.2976919,0.002 -0.5380888,0.0044 -1.0758942,0.0022 -1.6139606,-0.0038 l -0.1415158,-0.0016 c -0.2355329,-0.0026 -0.4711099,-0.0051 -0.7066403,-0.0079 -0.2401271,-0.0029 -0.4802352,-0.0056 -0.720366,-0.008 -0.1928059,-0.002 -0.3856324,-0.004 -0.5784348,-0.0062 -0.091275,-0.0011 -0.182501,-0.0021 -0.2737766,-0.0031 -0.128608,-0.0013 -0.2572621,-0.0026 -0.3858656,-0.0041 l -0.1171844,-0.0015 c -0.2082203,-0.0024 -0.3995911,-0.0013 -0.5991266,-0.06104 0.056257,-0.08028 0.1123193,-0.16063 0.1671981,-0.241773 l 0.066546,-0.09912 c 0.050747,-0.07525 0.1014893,-0.150495 0.1522253,-0.225747 0.2210942,-0.33009 0.4371631,-0.6804 0.7363785,-0.952255 0.090231,-0.06569 0.1787466,-0.129383 0.261819,-0.203192 L 5.630281,9.9211956 H 5.7367552 C 6.2874286,9.5482882 6.7250906,9.045174 7.0258857,8.4755025 7.1850736,8.173033 7.3537312,7.8202923 7.6518393,7.6231629 c 0.1063654,-0.042341 0.1063654,-0.042353 0.2050462,-10e-4 0.1837659,0.1070265 0.3498749,0.1845313 0.5616941,0.2255495 0.2656105,0.049592 0.5205977,0.1219203 0.7785942,0.1994333 l 0.1744764,0.056585 0.1815477,0.057377 c 0.3755634,0.1228114 0.6605771,0.07346 1.0123381,-0.082602 l 0.102316,-0.047187 c 0.188603,-0.082692 0.365051,-0.167145 0.532164,-0.2860917 l 0.126646,-0.1032795 c 0.234804,-0.175917 0.469025,-0.3517485 0.687092,-0.5464626 0.33577,-0.3438985 0.456447,-0.7518435 0.460419,-1.213813 l -0.0029,-0.1549169 c -0.0043,-0.4051557 -0.02682,-0.7653275 -0.179672,-1.1465435 l -0.05989,-0.129196 C 12.187867,4.3428839 12.14315,4.2407361 12.085277,4.1387885 11.847732,3.8068507 11.470583,3.4473942 11.044864,3.3632148 c -0.02938,-0.00178 -0.05667,-0.00297 -0.08225,-0.00345 z m 0.204318,0.5847472 c 0.150761,0.1019969 0.274476,0.1999208 0.390129,0.3371371 0.371548,0.527997 0.561704,1.1045505 0.461667,1.7395013 -0.242894,0.6948903 -0.77046,1.1470343 -1.430959,1.4822953 l -0.11292,0.05619 C 10.142016,7.7304572 9.8875379,7.7944877 9.5066139,7.7207114 L 9.4101209,7.6862854 9.2913772,7.6447374 C 9.2087992,7.6148194 9.1261155,7.5851584 9.0429715,7.5566934 8.9675665,7.5310654 8.8922012,7.5052904 8.8169213,7.4793334 L 8.7014006,7.4393674 C 8.5627102,7.3920454 8.4282324,7.3417564 8.2921395,7.2874182 8.1606028,7.2130192 8.0962799,7.1754849 8.038847,7.0408964 8.014769,6.9313483 8.014807,6.9313475 8.078983,6.8404742 8.2006262,6.7015098 8.3199381,6.5617048 8.4301202,6.4143042 L 8.5125752,6.2997485 C 8.5678182,6.2238165 8.6229967,6.1478419 8.6781099,6.071825 l 0.085263,-0.1189082 0.081935,-0.1121813 c 0.068685,-0.099102 0.068685,-0.099102 0.1389159,-0.1741084 H 9.0906984 C 9.0819484,5.5593555 9.0819484,5.5593555 9.1549574,5.4574992 L 9.2404284,5.3342384 C 9.3208334,5.211571 9.3208334,5.211571 9.410122,5.1094802 l 0.1597118,-0.05065 c 0,-0.1704441 0.099066,-0.2821779 0.2129488,-0.4051976 0.3115184,-0.2523841 0.9512584,-0.709096 1.3841664,-0.7090955 z"
       style="fill:url(#linearGradient850);fill-opacity:1;stroke-width:0.0519274" />
  </g>
</svg>
