<?xml version="1.0" encoding="UTF-8" standalone="no"?>
<svg
   xmlns:dc="http://purl.org/dc/elements/1.1/"
   xmlns:cc="http://creativecommons.org/ns#"
   xmlns:rdf="http://www.w3.org/1999/02/22-rdf-syntax-ns#"
   xmlns:svg="http://www.w3.org/2000/svg"
   xmlns="http://www.w3.org/2000/svg"
   xmlns:sodipodi="http://sodipodi.sourceforge.net/DTD/sodipodi-0.dtd"
   xmlns:inkscape="http://www.inkscape.org/namespaces/inkscape"
   version="1.1"
   width="256"
   height="256"
   id="svg238"
   sodipodi:docname="jsdoc.svg"
   inkscape:version="1.0.2-2 (e86c870879, 2021-01-15)">
  <metadata
     id="metadata244">
    <rdf:RDF>
      <cc:Work
         rdf:about="">
        <dc:format>image/svg+xml</dc:format>
        <dc:type
           rdf:resource="http://purl.org/dc/dcmitype/StillImage" />
      </cc:Work>
    </rdf:RDF>
  </metadata>
  <defs
     id="defs242" />
  <sodipodi:namedview
     pagecolor="#ffffff"
     bordercolor="#666666"
     borderopacity="1"
     objecttolerance="10"
     gridtolerance="10"
     guidetolerance="10"
     inkscape:pageopacity="0"
     inkscape:pageshadow="2"
     inkscape:window-width="1920"
     inkscape:window-height="1009"
     id="namedview240"
     showgrid="false"
     inkscape:zoom="2.4334417"
     inkscape:cx="2.7796001"
     inkscape:cy="115.84574"
     inkscape:window-x="1072"
     inkscape:window-y="-8"
     inkscape:window-maximized="1"
     inkscape:current-layer="layer3"
     inkscape:document-rotation="0" />
  <path
     id="path128"
     d="m 179.16211,29.455078 c -3.36273,-0.06727 -5.18346,0.560111 -8.41211,2.857422 -2.56059,2.703483 -2.56059,2.703483 -5.3125,4.25 C 162.71721,38.166771 160.36055,39.901731 158,42 l -1,3 c -2.9003,1.132776 -4.78111,1.776816 -6.99219,4.03125 L 148.125,51.5 c -2.65348,3.459976 -5.19589,6.984654 -7.6875,10.5625 -2.2474,3.263839 -4.55849,6.441002 -7,9.5625 -1.68826,2.135701 -3.36038,4.269276 -4.96484,6.46875 -1.99207,2.747678 -3.94081,5.368824 -6.33204,7.785156 -2.75517,2.635651 -4.88592,4.600621 -6.57812,8.058594 L 115,96 c -2.82727,-0.878371 -2.82751,-0.878615 -4.74609,-1.816406 l -1.90625,-0.960938 -2.10352,-1.05664 -2.18164,-1.103516 c -1.42581,-0.717396 -2.85159,-1.434842 -4.277344,-2.152344 -2.00571,-1.012982 -4.012099,-2.023617 -6.021484,-3.029297 L 92,85 V 83 C 88.300292,80.160689 85.76295,77.964016 83.5625,73.8125 82.207344,71.224196 80.817946,68.698121 79.308594,66.195312 L 77.5,63.4375 75.84375,60.871094 C 74,59 74,59 71.40625,58.597656 69,59 69,59 67,61 c -0.556382,3.853458 0.47343,6.640011 2.132812,10.113281 L 70.0625,72.9375 c 1.978878,3.896088 3.862132,7.519511 7.25,10.375 2.10945,1.531583 4.042598,3.015192 5.964844,4.789062 4.300815,4.063014 8.565261,7.584144 13.597656,10.710938 3.50992,2.07218 6.53771,3.9961 9.125,7.1875 -0.46234,4.77755 -1.29351,7.65324 -4.75,11 -2.953552,2.66176 -5.223923,5.47414 -7.5625,8.68359 -1.23285,1.69232 -2.48571,3.37011 -3.75,5.03907 -3.14289,4.14141 -6.260705,8.27165 -9.164062,12.58593 -3.628884,5.44333 -7.235021,10.39693 -11.898438,15.00391 -4.719047,4.52058 -9.954631,9.08681 -13.0625,14.91406 L 55,175 h -2 l -1.480469,2.08984 c -2.359056,3.93536 -4.642979,7.82806 -7.535156,11.39844 C 41.101966,191.88038 38.565669,194.38443 38.5,199 c 0.5,3 0.5,3 1.5,4 6.249997,4.16666 6.249243,4.16709 35.076172,4.13672 1.756012,-0.002 3.513518,-0.003 5.269531,-0.002 3.736338,0.003 7.472642,0.004 11.208985,0 4.759776,-0.006 9.519512,-0.01 14.279292,-0.004 18.53123,0.0227 37.05661,-0.002 55.58204,-0.51367 l 2.25976,-0.0625 c 1.45902,-0.0385 2.91797,-0.0774 4.37695,-0.11719 l 3.95313,-0.125 c 2.00001,-0.0629 3.99953,-0.15278 5.99414,-0.3125 1,-1 1,-1 1.75,-2.875 0.25,-2.125 0.24945,-2.12477 -0.76367,-3.74023 -2.45625,-1.71162 -4.39094,-1.72007 -7.33399,-1.71289 l -2.1914,0.0508 c -1.59065,0.0113 -3.18281,0.0224 -4.77344,0.0352 -3.53544,0.0554 -7.06966,0.10045 -10.60547,0.125 -1.86391,0.0127 -3.72788,0.0262 -5.5918,0.0391 -10.10738,0.0873 -20.20944,0.043 -30.3164,-0.0742 l -2.65821,-0.0312 c -4.42422,-0.0505 -8.84926,-0.1016 -13.27343,-0.15625 -4.510512,-0.0562 -9.020665,-0.11028 -13.531252,-0.15821 -3.62164,-0.0384 -7.24366,-0.079 -10.865235,-0.12304 -1.714494,-0.0213 -3.428076,-0.0419 -5.142578,-0.0625 -2.415754,-0.0246 -4.832375,-0.0503 -7.248047,-0.082 l -2.201172,-0.0293 C 59.342722,197.15829 55.748046,197.18063 52,196 c 1.056722,-1.58508 2.109784,-3.1714 3.140625,-4.77344 l 1.25,-1.95703 c 0.953232,-1.48561 1.906353,-2.97129 2.859375,-4.45703 4.153,-6.5171 8.211607,-13.43343 13.832031,-18.80078 C 74.776907,164.71474 76.439578,163.45725 78,162 l 1,-3 h 2 c 10.343767,-7.36248 18.564749,-17.29568 24.21484,-28.54297 2.99016,-5.97179 6.1582,-12.93611 11.75782,-16.82812 1.99795,-0.83597 1.99795,-0.83619 3.85156,-0.0195 3.45183,2.11306 6.572,3.64328 10.55078,4.45312 4.98919,0.97911 9.77883,2.40713 14.625,3.9375 l 3.27734,1.11719 3.41016,1.13281 c 7.05453,2.42472 12.4082,1.45036 19.01562,-1.63086 l 1.92188,-0.93164 c 3.54269,-1.63263 6.85708,-3.30002 9.99609,-5.64844 L 186,114 c 4.41053,-3.47321 8.8101,-6.94473 12.90625,-10.78906 6.30704,-6.789739 8.57382,-14.843979 8.64844,-23.964846 L 207.5,76.1875 c -0.0807,-7.99917 -0.50396,-15.110203 -3.375,-22.636719 L 203,51 c -0.82295,-2.134514 -1.66292,-4.151262 -2.75,-6.164062 -4.46202,-6.553596 -11.54633,-13.650507 -19.54297,-15.3125 -0.55189,-0.03513 -1.06453,-0.05875 -1.54492,-0.06836 z M 183,41 c 2.83187,2.013771 5.15572,3.947129 7.32812,6.65625 C 197.30723,58.080733 200.87908,69.463883 199,82 c -4.56247,13.719529 -14.4722,22.64641 -26.87891,29.26562 L 170,112.375 c -6.2522,3.37211 -11.03228,4.63629 -18.1875,3.17969 L 150,114.875 l -2.23047,-0.82031 c -1.55113,-0.5907 -3.10425,-1.17629 -4.66601,-1.73828 -1.41639,-0.50597 -2.83205,-1.01487 -4.2461,-1.52735 L 136.6875,110 c -2.60514,-0.93429 -5.13115,-1.92717 -7.6875,-3 -2.47077,-1.46889 -3.679,-2.20995 -4.75781,-4.86719 -0.4523,-2.16286 -0.45157,-2.162875 0.7539,-3.957029 2.28493,-2.743632 4.52607,-5.503867 6.59571,-8.414062 L 133.14062,87.5 c 1.03768,-1.499157 2.07414,-2.99916 3.10938,-4.5 l 1.60156,-2.347656 1.53906,-2.214844 C 140.68079,76.480875 140.68079,76.480875 142,75 h 2 c -0.1644,-2.11791 -0.1644,-2.11791 1.20703,-4.128906 L 146.8125,68.4375 C 148.32282,66.015623 148.32282,66.015623 150,64 l 3,-1 c 0,-3.365157 1.86084,-5.571162 4,-8 5.85151,-4.982928 17.86831,-14 26,-14 z" />
  <path
     id="path130"
     d="m 218.80859,42.416016 c 0.003,0.0033 0.005,0.0065 0.008,0.0098 -10e-4,-0.0021 -0.005,-0.0072 -0.006,-0.0098 z m 6.23243,3.935546 c -0.17775,0.03397 -0.337,0.08501 -0.45508,0.177735 0.0209,0.02538 0.042,0.05044 0.0625,0.07617 0.10777,-0.01826 0.22272,-0.03948 0.33789,-0.05859 -0.004,-0.04018 -0.011,-0.08165 0.01,-0.121094 0.013,-0.0261 0.0311,-0.04867 0.0449,-0.07422 z M 21.931641,55.048828 c -0.07822,0.05043 -0.153654,0.09829 -0.238282,0.154297 -0.188965,0.321 -0.372063,0.641599 -0.554687,0.962891 0.264257,-0.372415 0.529357,-0.744218 0.792969,-1.117188 z M 15,65 c -0.02492,0.08182 -0.03696,0.115939 -0.06055,0.193359 0.0398,-0.06481 0.0813,-0.128542 0.121094,-0.193359 z m 226.92578,2.230469 c -0.0418,0.03847 -0.0852,0.08124 -0.12695,0.11914 2.7e-4,0.08792 0.002,0.175753 0.002,0.263672 0.0634,-0.09621 0.1112,-0.187207 0.16797,-0.28125 z m 11.58984,68.070311 c -0.0605,0.0582 -0.10957,0.10766 -0.1621,0.1582 -0.0256,0.34603 -0.0529,0.69153 -0.0801,1.03711 0.0852,-0.3978 0.16125,-0.79693 0.24218,-1.19531 z M 5.0058594,151.0293 c -0.00161,0.0228 -0.00424,0.0455 -0.00586,0.0684 0.00689,0.002 0.014581,0.004 0.021484,0.006 z M 251.0625,151.33398 c -0.10405,0.20757 -0.15879,0.3189 -0.21094,0.42579 0.0387,-0.0398 0.0812,-0.0769 0.11914,-0.11719 0.017,-0.0575 0.029,-0.11655 0.0469,-0.17383 0.0141,-0.0452 0.0306,-0.0896 0.0449,-0.13477 z m 3.43164,4.6211 c -0.14207,0.58675 -0.2896,1.17233 -0.41016,1.76367 0.0625,-0.14411 0.13034,-0.28581 0.19336,-0.42969 0.0722,-0.44473 0.14949,-0.88988 0.2168,-1.33398 z m -17.37891,42.68554 c -0.0777,0.071 -0.156,0.14179 -0.21093,0.23047 -0.0231,0.0373 0.10047,0.0345 0.10547,0.0781 0.002,0.0172 -0.0102,0.0337 -0.0117,0.0508 H 237 c 0.0398,-0.11933 0.0758,-0.23991 0.11523,-0.35938 z" />
  <path
     id="path132"
     d="m 115,110 c -0.98786,2.16848 -1.99611,3.9951 -3.48047,5.86719 -2.82911,3.3276 -5.21886,6.54668 -7.21875,10.44531 -4.962729,10.55015 -10.63991,18.90448 -19.80078,26.3125 -9.449848,7.42017 -18.68234,16.26081 -24.5625,26.875 -1.628311,3.07408 -3.546696,5.85213 -5.5625,8.6875 C 52.311889,191.04793 50.486768,193.7983 49,197 h 2 v 2 c 2,1 2.000952,1 4.199219,1.12305 l 2.787109,-0.002 3.195313,0.004 3.519531,-0.0117 c 3.886443,4.7e-4 7.773722,0.001 11.660156,-0.008 3.485451,-0.007 6.96962,-0.0104 10.455078,-0.0117 6.579789,-0.002 13.160458,-0.008 19.740234,-0.0176 7.55102,-0.0114 15.10132,-0.0183 22.65234,-0.0234 15.61459,-0.0104 31.22918,-0.0287 46.84375,-0.0508 L 178,200 l -1,4 c -14.58721,0.0224 -29.1745,0.0404 -43.76172,0.0508 -7.10053,0.005 -14.20025,0.0102 -21.30078,0.0215 -6.22924,0.0101 -12.458256,0.0184 -18.6875,0.0215 -2.64943,9.5e-4 -5.299789,0.002 -7.949219,0.004 -3.792735,0.008 -7.586162,0.0149 -11.378906,0.0156 H 70.400391 C 61.703768,204.14201 49.403604,205.93574 42,201 c -0.333386,-3.54188 -0.333386,-3.54188 0,-7 1.152517,-1.15252 1.151784,-1.153 4.285156,-5.20117 L 47.625,187.0625 c 2.444216,-3.15491 4.864692,-6.29056 7.066406,-9.62109 3.06372,-4.74357 6.439366,-8.65762 10.484375,-12.56836 7.626426,-7.33399 13.91342,-14.99195 19.941407,-23.68164 1.751609,-2.55266 3.513947,-5.09293 5.328124,-7.60157 L 92.5625,130.6875 c 1.836446,-2.53994 3.704472,-5.02416 5.652344,-7.48047 L 100,121 l -2,-1 -2.4375,3.25 c -1.186163,1.58434 -2.373826,3.16755 -3.5625,4.75 -3.831215,5.04372 -7.689276,10.0523 -11.226562,15.30859 -3.628884,5.44333 -7.235021,10.39693 -11.898438,15.00391 -4.719047,4.52058 -9.954631,9.08681 -13.0625,14.91406 L 55,175 h -2 l -1.480469,2.08984 c -2.359056,3.93536 -4.642979,7.82806 -7.535156,11.39844 C 41.101966,191.88038 38.565669,194.38443 38.5,199 c 0.5,3 0.5,3 1.5,4 6.249997,4.16666 6.249243,4.16709 35.076172,4.13672 1.756012,-0.002 3.513518,-0.003 5.269531,-0.002 3.736338,0.003 7.472642,0.004 11.208985,0 4.759776,-0.006 9.519512,-0.01 14.279292,-0.004 18.53123,0.0227 37.05661,-0.002 55.58204,-0.51367 l 2.25976,-0.0625 c 1.45902,-0.0385 2.91797,-0.0774 4.37695,-0.11719 l 3.95313,-0.125 c 2.00001,-0.0629 3.99953,-0.15278 5.99414,-0.3125 1,-1 1,-1 1.75,-2.875 0.25,-2.125 0.24945,-2.12477 -0.76367,-3.74023 -2.45625,-1.71162 -4.39094,-1.72007 -7.33399,-1.71289 l -2.1914,0.0508 c -1.59065,0.0113 -3.18281,0.0224 -4.77344,0.0352 -3.53544,0.0554 -7.06966,0.10045 -10.60547,0.125 -1.86391,0.0127 -3.72788,0.0262 -5.5918,0.0391 -10.10738,0.0873 -20.20944,0.043 -30.3164,-0.0742 l -2.65821,-0.0312 c -4.42422,-0.0505 -8.84926,-0.1016 -13.27343,-0.15625 -4.51051,-0.0562 -9.020665,-0.11028 -13.531252,-0.15821 -3.62164,-0.0384 -7.24366,-0.079 -10.865235,-0.12304 -1.714494,-0.0213 -3.428076,-0.0419 -5.142578,-0.0625 -2.415754,-0.0246 -4.832375,-0.0503 -7.248047,-0.082 l -2.201172,-0.0293 C 59.342722,197.15835 55.748046,197.18063 52,196 c 1.056722,-1.58508 2.109784,-3.1714 3.140625,-4.77344 l 1.25,-1.95703 c 0.953232,-1.48561 1.906353,-2.97129 2.859375,-4.45703 4.153,-6.5171 8.211607,-13.43343 13.832031,-18.80078 C 74.776907,164.71474 76.439578,163.45725 78,162 l 1,-3 h 2 c 10.343767,-7.36248 18.564745,-17.29568 24.21484,-28.54297 2.99016,-5.97179 6.1582,-12.93611 11.75782,-16.82812 1.99795,-0.83597 1.99795,-0.83615 3.85156,-0.0195 3.45183,2.11306 6.572,3.64328 10.55078,4.45312 3.43195,0.65541 6.67409,1.55181 10,2.625 3.34811,1.12135 4.17315,1.46312 7.625,0.3125 -4.44022,-2.06522 -8.86536,-3.60268 -13.5625,-5 -2.15918,-0.62209 -4.30606,-1.28865 -6.4375,-2 -5.00758,-2.53192 -8.45699,-3.52215 -14,-4 z" />
  <path
     id="path134"
     d="m 163,38 c -2.625,1.75 -2.625,1.75 -5,4 l -1,3 c -2.9003,1.132776 -4.78111,1.776816 -6.99219,4.03125 L 148.125,51.5 c -2.65348,3.459976 -5.19589,6.984654 -7.6875,10.5625 -2.2474,3.263839 -4.55849,6.441002 -7,9.5625 -1.68826,2.135701 -3.36038,4.269276 -4.96484,6.46875 -1.99207,2.747678 -3.94081,5.368824 -6.33204,7.785156 -2.75518,2.635651 -4.88592,4.600621 -6.57812,8.058594 L 115,96 c -2.82727,-0.878371 -2.82751,-0.878615 -4.74609,-1.816406 l -1.90625,-0.960938 -2.10352,-1.05664 -2.18164,-1.103516 c -1.42581,-0.717396 -2.85159,-1.434842 -4.277344,-2.152344 -2.00571,-1.012982 -4.012099,-2.023617 -6.021484,-3.029297 L 92,85 V 83 L 90.46875,81.492188 88.5,79.875 C 87.33787,78.91117 86.172513,77.951171 85,77 l -1,2 c 4.821151,5.655581 9.573889,10.09742 16.13281,13.564453 L 102.25,93.625 c 3.67173,1.867518 6.96563,3.289366 11.11328,3.742188 C 116,97 116,97 117.9375,94.5 118.60935,93.324254 119.299,92.158603 120,91 c 3.38738,-4.397074 6.36796,-8.634657 12,-10 0,4.231848 -2.92469,8.540873 -5.37891,11.871094 -0.89352,1.142995 -1.77084,2.298902 -2.6289,3.46875 -1.6343,2.73455 -1.67352,4.594166 -0.99219,7.660156 2.71222,3.07385 5.83542,4.43106 9.5625,5.9375 1.81728,0.67476 3.62957,1.36306 5.4375,2.0625 7.15762,3.41258 13.3787,6.02056 21.4375,5.67188 13.75223,-2.59364 25.24478,-10.83245 33.875,-21.60938 6.51632,-9.393901 8.78398,-16.491068 7.32422,-27.902344 C 198.59626,58.032947 194.73088,46.212677 186,40 c -6.34655,-1.560628 -6.34655,-1.560628 -16.25,4.285156 L 167,46 c -6.06209,3.687154 -10.79847,6.927169 -14.25,13.3125 L 152,61 h -2 c -1.19336,1.329746 -2.37522,2.671872 -3.49219,4.066406 L 145,67 c -1.88808,2.409069 -3.7712,4.82163 -5.64453,7.242188 L 138,76 137,74 138.3125,71.6875 140,69 c 3.64986,-9.489646 10.2081,-16.932379 17.89453,-23.457031 L 160.8125,43.1875 163.76953,40.792969 166,39 Z m 20,3 c 2.83187,2.013771 5.15572,3.947129 7.32812,6.65625 C 197.30723,58.080733 200.87908,69.463883 199,82 c -4.56247,13.719529 -14.4722,22.64641 -26.87891,29.26562 L 170,112.375 c -6.2522,3.37211 -11.03228,4.63629 -18.1875,3.17969 L 150,114.875 l -2.23047,-0.82031 c -1.55113,-0.5907 -3.10425,-1.17629 -4.66601,-1.73828 -1.41639,-0.50597 -2.83205,-1.01487 -4.2461,-1.52735 L 136.6875,110 c -2.60514,-0.93429 -5.13115,-1.92717 -7.6875,-3 -2.47077,-1.46889 -3.679,-2.20995 -4.75781,-4.86719 -0.4523,-2.162872 -0.45157,-2.162875 0.7539,-3.957029 2.28493,-2.743632 4.52607,-5.503867 6.59571,-8.414062 L 133.14062,87.5 c 1.03768,-1.499157 2.07414,-2.99916 3.10938,-4.5 l 1.60156,-2.347656 1.53906,-2.214844 C 140.68079,76.480875 140.68079,76.480875 142,75 h 2 c -0.1644,-2.11791 -0.1644,-2.11791 1.20703,-4.128906 L 146.8125,68.4375 C 148.32282,66.015623 148.32282,66.015623 150,64 l 3,-1 c 0,-3.365157 1.86084,-5.571162 4,-8 5.85151,-4.982928 17.86831,-14 26,-14 z" />
  <path
     id="path136"
     d="M 71.40625,58.605469 C 69,59 69,59 67,61 c -0.556382,3.853458 0.47343,6.640011 2.132812,10.113281 L 70.0625,72.9375 c 1.978878,3.896088 3.862132,7.519511 7.25,10.375 2.10945,1.531583 4.042598,3.015189 5.964844,4.789062 4.300815,4.063014 8.565261,7.584144 13.597656,10.710938 3.50822,2.07118 6.54869,3.98848 9.125,7.1875 -0.59535,4.68835 -1.39898,7.15151 -4.125,11 L 100,119 c 1.75,-0.625 1.75,-0.625 4,-2 2.73083,-3.26182 3.91607,-5.31655 4.4375,-9.5625 C 107.97363,103.79282 107.27367,101.86314 105,99 l -3,-1 v -2 h 7 c -3,-2 -3,-2 -5.63672,-3.226562 C 94.140924,88.546032 87.582096,84.104093 83.4375,74.625 81.365991,69.638033 78.811805,65.301865 75.84375,60.800781 74,59 74,59 71.40625,58.605469 Z" />
  <path
     id="path138"
     d="M 114.81445,199.85742 C 96.18007,199.81046 77.546145,200.01344 59,202 v 1 c 5.734292,0.74282 11.318693,1.11653 17.099609,1.125 l 3.019532,-0.0117 c 3.401267,4.6e-4 6.801864,-3.4e-4 10.203125,-0.008 2.423594,-0.005 4.847884,-0.008 7.271484,-0.01 6.36071,-0.003 12.72133,-0.009 19.08203,-0.0195 6.58788,-0.0113 13.17579,-0.0182 19.76367,-0.0234 C 149.62625,204.04183 163.81322,204.0234 178,204 v -4 c -9.81575,-0.0212 -19.6315,-0.0382 -29.44727,-0.0488 -5.0357,-0.005 -10.07172,-0.009 -15.10742,-0.0195 -6.2084,-0.0142 -12.41939,-0.0586 -18.63086,-0.0742 z" />
  <path
     id="path140"
     d="M 179.54102,29.384766 C 173.53882,29.275235 170.18072,32.534486 166,37 l 2,1 c 1.51566,-2.104732 1.51566,-2.104732 4,-4 4.8043,-1.221433 8.12262,-1.205308 12.875,0.1875 2.66359,0.867753 3.80023,1.199602 5.12891,3.707031 1.19066,2.516743 1.19066,2.516743 5.05859,5.605469 2.22429,1.76978 3.69565,2.795071 4.625,5.503906 0.40942,2.615188 0.40942,2.615188 2.3125,8.996094 1.24803,2.774697 1.99002,4.887212 2.24219,7.9375 l -0.0117,3.203125 -0.006,3.492187 -0.0371,3.617188 c -0.002,4.250473 0.0671,8.506253 -0.1875,12.75 -1,1 -1,1 -2.0625,4.5625 L 201,97 h -2 c -1.6801,2.89181 -3.01773,5.01603 -5.52344,7.28125 -2.84748,2.21558 -5.68377,4.43445 -8.47656,6.71875 -2.62059,2.65497 -4.26437,4.71578 -7.75,6.0625 L 174,118 c -7.43532,4.1006 -13.48225,4.39679 -21.81641,4.14062 L 149,122 v 1 l 1.94141,0.69141 2.62109,0.87109 c 6.59553,2.25874 12.00856,0.91619 18.14062,-1.94336 l 1.92188,-0.93164 c 3.54269,-1.63263 6.85708,-3.30002 9.99609,-5.64844 L 186,114 c 4.41053,-3.47321 8.8101,-6.94473 12.90625,-10.78906 6.30704,-6.789729 8.57382,-14.843979 8.64844,-23.964846 L 207.5,76.1875 c -0.0807,-7.99917 -0.50396,-15.110203 -3.375,-22.636719 L 203,51 c -0.82295,-2.134514 -1.66292,-4.151262 -2.75,-6.164062 -4.51834,-6.636315 -11.49635,-13.420277 -19.47266,-15.382813 -0.42468,-0.03788 -0.83618,-0.06106 -1.23632,-0.06836 z" />
  <path
     id="path142"
     d="m 168,38 c -2,0 -2,0 -4.32422,1.777344 L 161,42 c -8.82832,6.466419 -15.38158,13.513153 -20.3125,23.375 L 139,69 c -1.05288,1.633776 -2.0727,3.291816 -3,5 l 1,3 c 1.61414,-1.575012 3.15535,-3.175965 4.64844,-4.867188 C 143.41798,70.075015 145.19367,68.025636 147,66 c 1.68616,-1.646945 3.3557,-3.311261 5,-5 4.21114,-6.520476 8.74781,-10.553157 15.51758,-14.185547 L 169.4375,45.8125 c 3.77148,-2.0498 7.3962,-3.8648 11.53516,-5.050781 L 184,40 v -1 c -4.90738,-0.533411 -7.77464,0.162427 -12.1875,2.4375 -2.94571,1.628259 -5.50146,2.900291 -8.8125,3.5625 2.34059,-2.127806 3.707,-4.115622 5,-7 z" />
  <path
     id="path144"
     d="m 115,110 c -0.98786,2.16848 -1.99611,3.9951 -3.48047,5.86719 -2.84933,3.35138 -5.24028,6.58817 -7.25391,10.51562 -3.12021,6.62688 -6.160317,12.29524 -11.273432,17.65235 L 91,146 c -2.449668,2.48918 -4.910027,4.91914 -7.507812,7.25391 -9.51212,8.39054 -18.27112,17.05156 -24.855469,27.98828 -1.175988,1.98149 -2.385946,3.94298 -3.617188,5.89062 C 53.341435,189.75212 51.670082,192.37559 50,195 c 2.285459,-0.96092 3.778906,-1.73066 5.369141,-3.66016 l 1.216797,-1.97265 1.382812,-2.19531 c 4.490886,-7.33512 8.848574,-15.17754 15.113281,-21.16016 C 74.776907,164.71474 76.439578,163.45725 78,162 l 1,-3 h 2 c 10.343767,-7.36248 18.564729,-17.29568 24.21484,-28.54297 2.99016,-5.97179 6.1582,-12.93611 11.75782,-16.82812 1.99795,-0.83597 1.99795,-0.83601 3.85156,-0.0195 3.45183,2.11306 6.572,3.64328 10.55078,4.45312 3.43195,0.65541 6.67409,1.55181 10,2.625 3.34811,1.12135 4.17315,1.46312 7.625,0.3125 -4.44022,-2.06522 -8.86536,-3.60268 -13.5625,-5 -2.15918,-0.62209 -4.30606,-1.28865 -6.4375,-2 -5.00758,-2.53192 -8.45699,-3.52215 -14,-4 z" />
  <path
     id="path146"
     d="M 177.35352,31.945312 C 174.64275,32.042041 172.07014,32.929865 170,35 c -1.72968,2.965172 -3.48653,5.682523 -5.6875,8.3125 L 162,46 c 2.73531,-0.423438 4.93457,-0.967918 7.42969,-2.191406 C 171.91817,42.413295 174.37986,41.130497 177,40 c 3.2642,-0.55599 5.97998,-0.510008 9,1 2.27259,2.870636 3.82707,5.556188 7.3125,6.875 L 195,48 c 0,3.375 0,3.375 3,10 h 3 c -0.9933,-5.463172 -1.56404,-10.453582 -5.4375,-14.625 L 193,41 c -1.4375,-2.625 -1.4375,-2.625 -3,-5 -3.2335,-2.105532 -7.44672,-3.870581 -11.47656,-4.048828 -0.39179,-0.01733 -0.78267,-0.01968 -1.16992,-0.0059 z" />
  <path
     id="path148"
     d="m 198,46 c -0.15323,3.294368 -0.0905,5.739969 1,8.875 l 1,2.125 -2,1 -3,-10 h -2 c 4.24799,11.398245 7.94827,21.650412 7,34 -1,1 -1,1 -1.75391,3.066406 L 197.4375,87.5625 C 196.95551,89.04075 196.47551,90.519652 196,92 l 3,-1 1.6875,-3.5625 L 202,84 l 1,6 2,-1 c 0.0205,-3.048177 0.037,-6.096306 0.0488,-9.144531 l 0.0137,-3.730469 0.0254,-3.707031 0.01,-3.535157 C 205.10718,66.921628 205.0851,64.95936 205,63 203.93265,61.058504 203.93265,61.058504 203.53516,59.011719 202.84141,55.600309 202.10189,52.305673 201,49 c -1,-2 -1,-2 -3,-3 z" />
  <path
     id="path150"
     d="m 98,120 -2.4375,3.25 c -1.186163,1.58434 -2.373826,3.16755 -3.5625,4.75 -3.831215,5.04372 -7.689276,10.0523 -11.226562,15.30859 -3.628884,5.44333 -7.235021,10.39693 -11.898438,15.00391 -4.719047,4.52058 -9.954631,9.08681 -13.0625,14.91406 L 55,175 h -2 l -1.480469,2.08984 c -2.359056,3.93536 -4.642979,7.82806 -7.535156,11.39844 C 41.101966,191.88038 38.565669,194.38443 38.5,199 c 0.5,3 0.5,3 1.5,4 5.120637,3.556 5.120637,3.556 19,3 l -1,-2 -2.835938,-0.34375 C 50.156526,203.43517 46.245347,203.83023 42,201 c -0.333386,-3.54188 -0.333386,-3.54188 0,-7 1.152517,-1.15252 1.151784,-1.153 4.285156,-5.20117 L 47.625,187.0625 c 2.444216,-3.15491 4.864692,-6.29056 7.066406,-9.62109 3.06372,-4.74357 6.439366,-8.65762 10.484375,-12.56836 7.626426,-7.33399 13.91342,-14.99195 19.941407,-23.68164 1.751609,-2.55266 3.513947,-5.09293 5.328124,-7.60157 L 92.5625,130.6875 c 1.836446,-2.53994 3.704472,-5.02416 5.652344,-7.48047 L 100,121 Z" />
  <path
     id="path152"
     d="m 84,81 v 4 c 2.041948,1.949346 2.041948,1.949346 3.664062,4.207031 3.774188,5.014708 7.1107,8.6831 12.562498,11.796879 2.5372,1.42507 4.20845,2.50634 5.77344,4.99609 -0.59535,4.68835 -1.39898,7.15151 -4.125,11 L 100,119 c 1.75,-0.625 1.75,-0.625 4,-2 2.73083,-3.26182 3.91607,-5.31655 4.4375,-9.5625 C 107.97363,103.79282 107.27367,101.86314 105,99 l -3,-1 v -2 h 7 c -3,-2 -3,-2 -5.23438,-3.148438 C 97.601863,89.84625 91.526433,86.935141 86.0625,82.75 Z" />
  <path
     id="path154"
     d="m 163,38 c -2.625,1.75 -2.625,1.75 -5,4 l -1,3 c -2.9003,1.132776 -4.78111,1.776816 -6.99219,4.03125 L 148.125,51.5 c -2.65348,3.459976 -5.19589,6.984654 -7.6875,10.5625 -2.2474,3.263839 -4.55849,6.441002 -7,9.5625 -1.68826,2.135701 -3.36038,4.269276 -4.96484,6.46875 -1.99207,2.747678 -3.94082,5.368824 -6.33204,7.785156 -2.75519,2.635651 -4.88592,4.600621 -6.57812,8.058594 L 115,96 c -2.82727,-0.878371 -2.82751,-0.878615 -4.74609,-1.816406 l -1.90625,-0.960938 -2.10352,-1.05664 -2.18164,-1.103516 c -1.42581,-0.717396 -2.85159,-1.434842 -4.277344,-2.152344 -2.00571,-1.012982 -4.012099,-2.023617 -6.021484,-3.029297 L 92,85 V 83 L 90.46875,81.492188 88.5,79.875 C 87.33787,78.91117 86.172513,77.951171 85,77 l -1,2 c 4.821151,5.655581 9.573887,10.09742 16.13281,13.564453 L 102.25,93.625 c 3.67173,1.867518 6.96563,3.289367 11.11328,3.742188 C 116,97 116,97 117.9375,94.5 c 1.09536,-1.929269 2.15968,-3.61692 3.58203,-5.328125 4.02662,-4.472005 7.84617,-9.062644 11.58594,-13.777344 L 135,73 c 1.99724,-2.460815 3.94197,-4.918557 5.78125,-7.5 5.10726,-7.42874 10.19976,-14.088472 17.11328,-19.957031 L 160.8125,43.1875 163.76953,40.792969 166,39 Z" />
  <path
     id="path156"
     d="M 167.35938,46.621094 C 161.22873,46.844134 155.43481,54.345597 152.75,59.3125 L 152,61 h -2 c -1.19336,1.329746 -2.37522,2.671872 -3.49219,4.066406 L 145,67 c -1.88808,2.409069 -3.7712,4.82163 -5.64453,7.242188 L 138,76 l -1,-2 1.4375,-2.4375 C 140,69 140,69 140,66 c -4.35116,5.032846 -9.27286,9.863946 -12,16 h 3 l 2,-2 -4,10 c 1.50738,-1.461323 2.93772,-2.924117 4.27148,-4.546875 l 1.25196,-1.632813 c 0.95246,-1.230267 1.90293,-2.462088 2.85156,-3.695312 2.62676,-3.427781 5.23156,-6.720418 8.24609,-9.820312 C 149.77067,66.284569 153.92435,62.244841 156.4375,57 L 157,55 c 2,0 2,0 4.60156,-1.75 L 164.625,51 c 1.79495,-1.328909 3.5876,-2.660947 5.375,-4 -0.88143,-0.293811 -1.76482,-0.410769 -2.64062,-0.378906 z" />
  <path
     id="path158"
     d="M 179.54102,29.384766 C 173.53882,29.275235 170.18072,32.534486 166,37 l 2,1 c 1.51566,-2.104732 1.51566,-2.104732 4,-4 4.8043,-1.221433 8.12262,-1.205308 12.875,0.1875 2.66359,0.867753 3.80023,1.199602 5.12891,3.707031 1.19066,2.516743 1.19066,2.516743 5.05859,5.605469 2.22858,1.773188 3.69637,2.79841 4.62891,5.511719 0.449,2.892969 0.449,2.892969 2.30859,8.988281 2.75393,5.381086 3.40824,9.751503 3.61914,15.791016 l 0.0684,3.146484 c 0.0968,3.020684 0.19262,6.04119 0.26758,9.0625 L 206,88 h 1 c 0.37138,-11.682602 1.35568,-23.358365 -2.875,-34.449219 L 203,51 c -0.82295,-2.134514 -1.66292,-4.151261 -2.75,-6.164062 -4.51834,-6.636315 -11.49635,-13.420277 -19.47266,-15.382813 -0.42468,-0.03788 -0.83618,-0.06106 -1.23632,-0.06836 z" />
  <path
     id="path160"
     d="m 146,68 c -5.0555,5.951582 -9.90746,12.065143 -14.64062,18.275391 L 129.4375,88.8125 c -1.81419,2.331238 -3.57778,4.670651 -5.26172,7.097656 C 122.57602,98.757278 122.35299,100.81361 123,104 c 2.76056,3.12864 5.95427,4.47461 9.75,6 2.59036,0.97379 5.13791,1.94842 7.65234,3.10547 C 145.01927,115.2916 148.8993,116.5659 154,117 v -2 c -2.24128,-0.75947 -4.48081,-1.52368 -6.71875,-2.29297 L 144.5,111.75 c -1.78312,-0.60388 -3.56441,-1.2132 -5.34375,-1.82812 -4.50825,-1.63358 -11.87504,-3.25149 -14.05664,-7.79688 -0.3068,-2.217828 -0.30655,-2.218804 1.16016,-4.126953 1.89863,-2.179603 1.89838,-2.179603 6.17187,-8.197266 L 134.0625,87.5 l 1.64258,-2.300781 1.58008,-2.230469 c 1.44795,-2.037436 2.7303,-3.997987 3.88476,-6.216797 L 142,75 h 2 c 1.46063,-2.647389 2,-3.894483 2,-7 z" />
  <path
     id="path162"
     d="m 115,110 c -0.72148,1.78413 -0.72148,1.78413 -2,4 -5.76129,6.56147 -9.88264,13.82985 -13,22 3,-1 3,-1 4.14062,-2.93359 3.0146,-6.80408 6.58398,-15.07027 12.84376,-19.45703 1.98958,-0.81334 1.98958,-0.81334 3.83984,0 3.45183,2.11307 6.572,3.64328 10.55078,4.45312 3.43195,0.65541 6.67409,1.55181 10,2.625 3.34811,1.12135 4.17315,1.46312 7.625,0.3125 -4.44022,-2.06522 -8.86536,-3.60268 -13.5625,-5 -2.15918,-0.62209 -4.30606,-1.28865 -6.4375,-2 -5.00758,-2.53192 -8.45699,-3.52215 -14,-4 z" />
  <path
     id="path164"
     d="m 168,38 c -2,0 -2,0 -4.0625,1.5625 L 161,42 158.74219,43.683594 156.3125,45.5 C 153.25716,47.759412 151.4518,49.459775 150,53 l 6,-3 1,1 c -2.72426,2.352773 -3.81418,4.624963 -5,8 4.72254,-4.904174 9.52763,-8.971577 15.51758,-12.185547 L 169.4375,45.8125 c 3.77148,-2.0498 7.3962,-3.8648 11.53516,-5.050781 L 184,40 v -1 c -4.90738,-0.533411 -7.77464,0.162427 -12.1875,2.4375 -2.94571,1.628259 -5.50146,2.900291 -8.8125,3.5625 2.34059,-2.127806 3.707,-4.115622 5,-7 z" />
  <path
     id="path166"
     d="m 69,61 c -0.08799,2.331674 -0.07905,4.668006 0,7 l 2,3 1.332031,2.191406 L 73.8125,75.5625 C 76.097397,79.293068 77.80803,80.683337 82,82 l 1,-2 -1.8125,-3.125 C 79.958408,74.862993 79.039924,73.139735 78.390625,70.867188 77.777412,68.002 77.348593,65.51459 75.6875,63.0625 73.515658,61.695044 71.52496,61.341211 69,61 Z" />
  <path
     id="path168"
     d="m 181.01172,115.28516 c -1.42584,-0.007 -2.94947,0.73559 -7.01172,2.71484 -7.3196,4.22575 -13.55672,4.39551 -21.81641,4.14062 L 149,122 v 1 c 2.3659,0.93629 4.72279,1.72569 7.16797,2.43359 8.43548,1.6871 8.43548,1.6871 27.83203,-9.43359 -1.31265,-0.43755 -2.13278,-0.71093 -2.98828,-0.71484 z" />
  <path
     id="path170"
     d="m 133,79 -1,1 c -1.6895,0.606486 -3.35637,1.278406 -5,2 -1.84641,2.956008 -1.84641,2.956008 -3.94531,5.042969 L 120.875,89.1875 118.67969,91.355469 117,93 l 2,1 7,-5 c 0.20788,2.946135 0.20788,2.946135 -1,5.1875 L 124,96 c 3,-2 3,-2 4.4375,-4.75 L 130,88 c 1.38617,-1.963746 2.73012,-3.959122 4,-6 z" />
  <path
     id="path172"
     d="m 192,97 c -1.53234,1.48628 -1.53234,1.48628 -3.10938,2.925781 L 186.25,102.3125 c -2.64665,2.39704 -5.30412,4.73138 -8.07812,6.98047 L 176,111 h 5 l -3,5 2,1 1,-3 h 2 c 1.5625,-1.1875 1.5625,-1.1875 3,-3 0.40866,-2.52008 0.61213,-4.485 2.16797,-6.55078 C 190.57015,101.73752 192,100.76196 192,97 Z" />
  <path
     id="path174"
     d="m 84,77 v 2 c 4.50902,5.831377 9.66709,10.132342 16.13281,13.560547 L 102.25,93.625 c 4.6358,2.358976 8.45011,3.819401 13.75,3.375 l 1,-3 h -2 v 2 c -2.82727,-0.878371 -2.82751,-0.878615 -4.74609,-1.816406 l -1.90625,-0.960938 -2.10352,-1.05664 -2.18164,-1.103516 c -1.42581,-0.717396 -2.85159,-1.434842 -4.277344,-2.152344 -2.00571,-1.012982 -4.012099,-2.023617 -6.021484,-3.029297 L 92,85 V 83 L 90.25,81.492188 88,79.875 C 86.671054,78.910591 85.338976,77.950434 84,77 Z" />
  <path
     id="path176"
     d="m 198,46 c -0.15323,3.294368 -0.0905,5.739969 1,8.875 l 1,2.125 -2,1 -3,-10 h -2 c 0.55752,1.61085 1.11605,3.221359 1.67969,4.830078 L 195.375,54.8125 C 196.63857,58.474642 197.83035,61.745519 200,65 v -5 h 2 v 2 l 2,1 -0.36719,-2.230469 L 203.125,57.8125 C 202.79676,55.866532 202.42149,53.927921 202,52 c -1.00412,-2.975021 -1.15285,-4.576423 -4,-6 z" />
  <path
     id="path178"
     d="m 69,68 v 2 c 1.930092,4.945305 4.071938,9.600356 8.1875,13.0625 3.201638,2.441689 6.12106,5.059449 9.0625,7.8125 C 89.138253,93.592828 89.982551,95 94,95 L 91,92.4375 C 89.671644,91.285901 88.33802,90.140358 87,89 82.119112,85.16774 78.504792,81.550684 75.1875,76.25 73.34697,73.119787 71.707583,70.439264 69,68 Z" />
  <path
     id="path180"
     d="M 182.95117,39.222656 C 177.9048,39.25441 174.03898,41.992249 170,45 c 3,1 3,1 4.8125,0.1875 2.81695,-1.529199 5.00572,-2.614779 8.1875,-3.1875 5.12515,3.033252 7.41142,6.991192 10.11719,12.207031 L 194,56 h 2 c -0.44677,-2.624792 -0.93858,-4.578903 -2,-7 -2.60946,-3.945403 -5.44894,-8.059358 -10.02344,-9.746094 -0.34732,-0.02265 -0.68896,-0.03337 -1.02539,-0.03125 z" />
  <path
     id="path182"
     d="m 84,81 v 4 c 2.512605,3.277311 2.512605,3.277311 13,10 l 1,-3 C 96,89 96,89 92.6875,87.0625 90.2553,85.744634 88.287335,84.454129 86.0625,82.75 Z" />
  <path
     id="path184"
     d="M 167.35938,46.621094 C 161.22873,46.844134 155.43481,54.345597 152.75,59.3125 L 152,61 h -2 c -1.6875,1.8125 -1.6875,1.8125 -3,4 l 1,3 c 3.23462,-3.485435 6.37067,-6.686608 8.4375,-11 L 157,55 c 2,0 2,0 4.60156,-1.75 L 164.625,51 c 1.79495,-1.328909 3.5876,-2.660947 5.375,-4 -0.88143,-0.293811 -1.76482,-0.410769 -2.64062,-0.378906 z" />
  <path
     id="path186"
     d="m 101,135 -2,2 c -5.913332,7.67245 -11.978812,13.88161 -19.472656,19.98047 L 77,159 l 1,3 1,-3 c 2.741637,0 2.742614,-9.8e-4 11.527344,-8.51172 C 94.695979,146.27545 101,141.10457 101,135 Z" />
  <path
     id="path188"
     d="m 157,48 c -4.23488,1.568473 -6.51526,4.30839 -9,8 0.1875,3.375 0.1875,3.375 1,6 l 3,-1 c 0.48374,-2.176847 0.78479,-3.733086 2.20312,-5.492188 C 155.52177,54.051512 156.76482,52.527727 158,51 Z" />
  <path
     id="path190"
     d="M 71.398438,58.585938 C 68.012756,59.170436 67.092924,60.070763 66.75,63.5 67,66 67,66 69,68 v -7 l 1.875,0.375 c 4.490351,2.643674 4.490351,2.643674 7.144531,7.421875 L 79.125,70.625 c 0.731911,1.200435 1.46369,2.400951 2.195312,3.601562 L 83,77 84,75 C 82.765217,71.913043 82.765217,71.913043 79.414062,66.382812 L 77.625,63.625 75.914062,60.976562 C 74,59 74,59 71.398438,58.585938 Z" />
  <path
     id="path192"
     d="m 94,96 v 1 l 1.609375,1.050781 C 99.375474,100.27058 103.64407,102.25194 106,106 c -0.59535,4.68835 -1.39898,7.15151 -4.125,11 L 100,119 c 2.97465,-1.06238 4.18801,-2.22457 6.25,-4.6875 2.10646,-3.98723 2.69961,-5.88097 1.75,-10.3125 -3.85857,-4.153189 -8.516283,-6.629071 -14,-8 z" />
  <path
     id="path194"
     d="m 200,67 c 0.21906,6.303986 1.20166,13.402755 -1.5,19.25 C 197,89 197,89 197,92 c 4.06794,-3.726096 5.68661,-8.212881 6.29297,-13.605469 C 203.44645,73.446719 203.33963,70.852057 200,67 Z" />
  <path
     id="path196"
     d="m 129,108 v 1 c 3.85083,1.20168 7.67002,2.40449 11.35547,4.05469 4.64943,2.19267 8.50877,3.50822 13.64453,3.94531 v -2 c -3.17651,-0.81102 -6.1686,-1.61825 -9.15234,-2.98828 C 139.43683,109.39664 135.01073,108.38163 129,108 Z" />
  <path
     id="path198"
     d="m 128.28906,114.83789 c -1.06755,-0.008 -2.1621,0.0435 -3.28906,0.16211 2,2 2,2 3.8125,2.52734 4.29459,0.80524 8.40213,1.8181 12.5625,3.16016 3.34811,1.12135 4.17315,1.46312 7.625,0.3125 -7.06468,-3.12745 -13.23805,-6.10306 -20.71094,-6.16211 z" />
  <path
     id="path200"
     d="m 39,195 -0.0625,3.4375 C 39,202 39,202 40,203 c 5.120637,3.556 5.120637,3.556 19,3 l -1,-2 -2.765625,-0.34375 C 49.748377,203.41024 45.042399,203.35059 40,201 v -6 z" />
  <path
     id="path202"
     d="m 144,64 -2,1 c -3.16038,3.456667 -4.74338,6.49711 -6,11 l 2,1 1.56641,-1.828125 L 141.5625,72.75 c 2.00391,-2.390625 2.00391,-2.390625 3.4375,-4.75 -0.28516,-2.296875 -0.28516,-2.296875 -1,-4 z" />
  <path
     id="path204"
     d="m 181.85352,38.958984 c -4.783,0.02289 -8.12034,0.922675 -12.5293,3.767578 L 166.6875,44.625 C 165.12154,45.745177 163.5579,46.868634 162,48 l 2,1 2.79297,-1.363281 c 4.61507,-2.650084 8.98935,-5.399664 14.13281,-6.867188 L 184,40 v -1 c -0.74959,-0.0294 -1.4632,-0.04429 -2.14648,-0.04102 z" />
  <path
     id="path206"
     d="m 69,61 c -0.25,6.625 -0.25,6.625 8,19 L 78,78 77.074219,75.652344 75.6875,72.9375 C 74.324219,70.214844 74.324219,70.214844 73,68 l -2,-1 c -0.655551,-2.527332 -0.655551,-2.527332 -1,-5 h 3 z" />
  <path
     id="path208"
     d="m 194,105 c -2,0 -2,0 -4.60156,1.96875 L 186.375,109.5 c -1.79546,1.49545 -3.58827,2.99413 -5.375,4.5 l 1.77344,0.66797 C 185,115 185,115 186.85156,113.92578 l 1.77344,-1.61328 c 2.52989,-2.22608 4.01648,-4.22556 5.375,-7.3125 z" />
  <path
     id="path210"
     d="m 70,62 -0.0625,2.4375 C 70,67 70,67 71,68 l 1,-2 4,3 c 0.625,-1.875 0.625,-1.875 1,-4 -2.25,-2.25 -2.25,-2.25 -7,-3 z" />
  <path
     id="path212"
     d="m 107,122 c -2.60608,4.56562 -5.23571,9.0279 -7,14 3,-1 3,-1 4.09766,-2.67188 L 105.0625,131.25 c 1.42705,-3.04 2.7579,-6.1044 3.9375,-9.25 z" />
  <path
     id="path216"
     d="M 180.44922,39.662109 C 177.57201,39.618865 176.05809,40.694761 170,45 c 3,1 3,1 5.8125,-0.375 3.11462,-1.766702 3.11462,-1.766702 6.5625,-2.3125 L 185,42 184,40 c -1.48064,-0.18508 -2.59171,-0.323476 -3.55078,-0.337891 z" />
  <path
     id="path218"
     d="m 90,91 1.625,2.5 C 94,96 94,96 97.1875,96.375 100,96 100,96 101,95 l -2,-4 -2,1 -1,1 z" />
  <path
     id="path220"
     d="m 77,67 v 4 c 1.613866,3.150881 3.375916,5.625829 6,8 l 1,-2 C 82.104984,73.309705 79.639788,70.185951 77,67 Z" />
  <path
     id="path222"
     d="m 82,144 c -2.742776,3.19991 -4.630284,6.00499 -6,10 2.980376,-1.49019 4.838637,-3.48815 7,-6 -0.1875,-2.3125 -0.1875,-2.3125 -1,-4 z" />
  <path
     id="path224"
     d="m 142,113 v 1 c 3.96698,1.80317 7.68225,2.49203 12,3 v -2 c -3,-1 -3,-1 -5.26172,-1.31641 L 146.3125,113.4375 C 144.87532,113.28851 143.43792,113.14168 142,113 Z" />
  <path
     id="path226"
     d="m 153,58 -1,3 h -2 c -1.6875,1.8125 -1.6875,1.8125 -3,4 l 1,3 1.34766,-1.425781 1.71484,-1.886719 C 152.78516,62.824219 152.78516,62.824219 154,61 Z" />
  <path
     id="path228"
     d="m 200,82 c -1.5809,3.491155 -3,6.133043 -3,10 2,-1.625 2,-1.625 4,-4 0.25,-3.25 0.25,-3.25 0,-6 z" />
  <path
     id="path230"
     d="m 152,55 c -1.64286,0 -1.64286,0 -4,3 0.3125,2.1875 0.3125,2.1875 1,4 l 3,-1 z" />
  <path
     id="path232"
     d="m 198,46 v 6 l 3,1 v 3 c 0.99928,-2.698065 1.03625,-3.880104 0.1875,-6.6875 C 200,47 200,47 198,46 Z" />
  <path
     id="path234"
     d="m 200,60 c -0.1875,2.3125 -0.1875,2.3125 0,5 1.5,1.8125 1.5,1.8125 3,3 0.065,-2.990667 0.3544,-5.291207 -1,-8 z" />
  <path
     id="path236"
     d="m 156,46 c -3.02107,2.014048 -4.60667,3.632796 -6,7 3.7363,-1.705702 5.68055,-2.520828 8,-6 z" />
  <g
     inkscape:groupmode="layer"
     id="layer3"
     inkscape:label="Layer 1"
     style="mix-blend-mode:normal;opacity:1">
    <path
       style="fill:none;stroke:#000000;stroke-width:1px;stroke-linecap:butt;stroke-linejoin:miter;stroke-opacity:1"
       d="M 9.4516339,37.395595 C 10.273515,219.85322 26.711139,241.63307 26.711139,241.63307"
       id="path1674" />
    <path
       style="mix-blend-mode:normal;fill:none;stroke:#000000;stroke-width:1px;stroke-linecap:butt;stroke-linejoin:miter;stroke-opacity:1"
       d="m 221.95837,36.629711 c 0.82189,182.457629 17.25951,204.237479 17.25951,204.237479"
       id="path1674-8" />
    <path
       style="fill:#000000;fill-opacity:1;fill-rule:nonzero;stroke:none"
       id="path1720"
       d="m 223.93246,35.147394 c -0.85815,-1.414082 -2.04899,-2.508769 -3.30134,-3.560146 -2.22343,-1.602291 -4.83527,-2.560517 -7.37296,-3.543488 -2.71536,-1.015672 -5.47901,-1.893523 -8.1951,-2.907465 -2.04248,-0.728935 -4.11364,-1.364768 -6.19066,-1.985911 -2.20891,-0.722978 -4.45583,-1.308439 -6.72252,-1.817494 -2.37141,-0.532898 -4.73868,-1.083138 -7.11164,-1.609054 -2.49367,-0.669331 -5.0308,-1.108911 -7.58541,-1.459728 -2.9757,-0.335934 -5.93701,-0.787479 -8.91499,-1.101874 -3.172,-0.311387 -6.36116,-0.316305 -9.54321,-0.429852 -3.42575,-0.113606 -6.84611,-0.318981 -10.26838,-0.503359 -3.51713,-0.188892 -7.03912,-0.240558 -10.56056,-0.264245 -3.89162,-0.02043 -7.78332,-0.006 -11.67498,-0.0028 -3.82232,-0.07276 -7.63327,0.0036 -11.44534,0.281318 -3.70974,0.247009 -7.41295,0.586055 -11.1081,0.99581 -3.40344,0.311115 -6.76566,0.930129 -10.139321,1.45792 -3.410931,0.535467 -6.820188,1.077671 -10.222987,1.663232 -2.928673,0.471437 -5.853225,0.972667 -8.766742,1.530602 -2.796546,0.549597 -5.540812,1.326922 -8.274667,2.124607 -2.64883,0.72668 -5.150688,1.87156 -7.682838,2.915293 -2.592559,1.013589 -5.117469,2.18555 -7.629142,3.382311 -2.30798,1.095937 -4.630189,2.163415 -6.922707,3.291789 -2.079307,0.928661 -4.254969,1.616044 -6.401494,2.368993 -2.097548,0.772682 -4.168351,1.602587 -6.298677,2.282516 -2.021181,0.652436 -4.090497,1.130954 -6.159619,1.600609 -1.481701,0.372381 -2.996251,0.554503 -4.518233,0.644212 -1.278218,0.125319 -2.518913,-0.146863 -3.728152,-0.532649 -0.925013,-0.280719 -1.662293,-0.890689 -2.390963,-1.498484 -0.688205,-0.487298 -1.301493,-1.060905 -1.919487,-1.631101 -0.09623,-0.08335 -0.192462,-0.166695 -0.288693,-0.250043 0,0 -5.1757198,3.223276 -5.1757198,3.223276 v 0 c 0.093954,0.0812 0.1879073,0.162401 0.281861,0.243601 0.6417205,0.551291 1.2292057,1.167879 1.9421837,1.633959 0.7711011,0.667308 1.5692831,1.333029 2.5396391,1.686287 1.250405,0.406351 2.539917,0.804871 3.871085,0.701837 1.550097,-0.07378 3.09879,-0.206102 4.610355,-0.579845 2.079756,-0.503384 4.175764,-0.946798 6.219748,-1.589032 2.137203,-0.672565 4.230816,-1.44391 6.313517,-2.270972 2.153315,-0.755817 4.325311,-1.462053 6.445156,-2.309336 2.298394,-1.154085 4.634691,-2.230141 6.957609,-3.332528 2.508243,-1.193732 5.016713,-2.391913 7.604629,-3.406554 2.535245,-1.018809 5.011541,-2.208413 7.645428,-2.961274 2.726309,-0.810037 5.464583,-1.594953 8.250203,-2.17666 2.915531,-0.570571 5.843899,-1.075529 8.776199,-1.551507 3.410086,-0.60205 6.825112,-1.168252 10.247455,-1.695746 3.370242,-0.514452 6.726479,-1.135392 10.120883,-1.473105 3.694531,-0.43376 7.399581,-0.782104 11.111481,-1.028352 3.8113,-0.274632 7.61945,-0.417239 11.44247,-0.331109 3.87884,8.63e-4 7.75769,0.0059 11.63649,0.02502 3.5138,0.0297 7.02875,0.06644 10.53877,0.24615 3.41741,0.18866 6.83259,0.399654 10.25328,0.524141 3.16823,0.145241 6.3459,0.103314 9.50625,0.410662 2.97105,0.305328 5.92429,0.754573 8.89171,1.092688 2.53174,0.362281 5.05603,0.763414 7.5266,1.443014 2.37099,0.531205 4.73984,1.06993 7.10895,1.609173 2.24931,0.508693 4.49151,1.04749 6.6748,1.798922 2.07217,0.629102 4.14912,1.236439 6.19937,1.935907 2.73286,0.999231 5.51381,1.857853 8.24404,2.864308 2.46887,0.94892 4.98568,1.916494 7.16327,3.444342 1.20035,1.015604 2.3991,2.035112 3.12701,3.46583 0,0 5.26419,-3.084653 5.26419,-3.084653 z" />
    <path
       style="mix-blend-mode:normal;fill:#000000;fill-opacity:1;fill-rule:nonzero;stroke:none"
       id="path1720-8"
       d="m 241.00172,235.09091 c -0.85815,-1.41408 -2.04899,-2.50877 -3.30134,-3.56014 -2.22343,-1.60229 -4.83527,-2.56052 -7.37296,-3.54349 -2.71536,-1.01567 -5.47901,-1.89352 -8.1951,-2.90747 -2.04248,-0.72893 -4.11364,-1.36476 -6.19066,-1.98591 -2.20891,-0.72297 -4.45583,-1.30843 -6.72252,-1.81749 -2.37141,-0.5329 -4.73868,-1.08314 -7.11164,-1.60905 -2.49367,-0.66933 -5.0308,-1.10892 -7.58541,-1.45973 -2.9757,-0.33594 -5.93701,-0.78748 -8.91499,-1.10188 -3.172,-0.31138 -6.36116,-0.3163 -9.54321,-0.42985 -3.42575,-0.1136 -6.84611,-0.31898 -10.26838,-0.50336 -3.51713,-0.18889 -7.03912,-0.24056 -10.56056,-0.26424 -3.89162,-0.0204 -7.78332,-0.006 -11.67498,-0.003 -3.82232,-0.0728 -7.63327,0.004 -11.44534,0.28132 -3.70974,0.24701 -7.41295,0.58605 -11.1081,0.99581 -3.40344,0.31111 -6.76566,0.93012 -10.13932,1.45792 -3.41093,0.53546 -6.82019,1.07767 -10.22299,1.66323 -2.928666,0.47143 -5.853216,0.97266 -8.766736,1.5306 -2.79654,0.5496 -5.54081,1.32692 -8.27467,2.12461 -2.64883,0.72668 -5.15068,1.87156 -7.68283,2.91529 -2.59256,1.01359 -5.11747,2.18555 -7.62915,3.38231 -2.30798,1.09594 -4.630184,2.16342 -6.922702,3.29179 -2.079307,0.92866 -4.254969,1.61604 -6.401494,2.36899 -2.097548,0.77268 -4.168351,1.60259 -6.298677,2.28252 -2.021181,0.65243 -4.090497,1.13095 -6.159619,1.60061 -1.481701,0.37238 -2.996251,0.5545 -4.518233,0.64421 -1.278218,0.12532 -2.518913,-0.14686 -3.728152,-0.53265 -0.925013,-0.28072 -1.662293,-0.89069 -2.390963,-1.49848 -0.688205,-0.4873 -1.301493,-1.06091 -1.919487,-1.6311 -0.09623,-0.0833 -0.192462,-0.1667 -0.288693,-0.25005 0,0 -5.17572,3.22328 -5.17572,3.22328 v 0 c 0.09395,0.0812 0.187907,0.1624 0.281861,0.2436 0.641721,0.55129 1.229206,1.16788 1.942184,1.63396 0.771101,0.66731 1.569283,1.33303 2.539639,1.68629 1.250405,0.40635 2.539917,0.80487 3.871085,0.70183 1.550097,-0.0738 3.09879,-0.2061 4.610355,-0.57984 2.079756,-0.50339 4.175764,-0.9468 6.219748,-1.58903 2.137203,-0.67257 4.230816,-1.44391 6.313517,-2.27098 2.153315,-0.75581 4.325311,-1.46205 6.445156,-2.30933 2.298394,-1.15409 4.634691,-2.23014 6.957609,-3.33253 2.508246,-1.19373 5.016716,-2.39191 7.604626,-3.40655 2.53525,-1.01881 5.01154,-2.20842 7.64543,-2.96128 2.72631,-0.81003 5.46458,-1.59495 8.2502,-2.17666 2.91553,-0.57057 5.8439,-1.07553 8.7762,-1.5515 3.41009,-0.60206 6.825106,-1.16826 10.247456,-1.69575 3.37024,-0.51445 6.72648,-1.13539 10.12088,-1.47311 3.69453,-0.43376 7.39958,-0.7821 11.11148,-1.02835 3.8113,-0.27463 7.61945,-0.41724 11.44247,-0.33111 3.87884,8.7e-4 7.75769,0.006 11.63649,0.025 3.5138,0.0297 7.02875,0.0664 10.53877,0.24615 3.41741,0.18866 6.83259,0.39966 10.25328,0.52414 3.16823,0.14525 6.3459,0.10332 9.50625,0.41067 2.97105,0.30532 5.92429,0.75457 8.89171,1.09268 2.53174,0.36228 5.05603,0.76342 7.5266,1.44302 2.37099,0.5312 4.73984,1.06993 7.10895,1.60917 2.24931,0.50869 4.49151,1.04749 6.6748,1.79892 2.07217,0.6291 4.14912,1.23644 6.19937,1.93591 2.73286,0.99923 5.51381,1.85785 8.24404,2.86431 2.46887,0.94892 4.98568,1.91649 7.16327,3.44434 1.20035,1.0156 2.3991,2.03511 3.12701,3.46583 0,0 5.26419,-3.08465 5.26419,-3.08465 z" />
    <path
       style="fill:#000000;fill-opacity:1;fill-rule:nonzero;stroke:none"
       id="path1742"
       d="m 239.63796,236.1067 c -2.90385,-0.81106 -7.79637,0.51704 -7.54342,4.12051 0.0776,0.75548 0.76152,1.07528 1.40202,0.91674 0.18119,1.15802 0.85139,1.54848 1.96362,1.59759 1.83979,-0.28558 7.96833,-2.64655 5.33949,-4.57493 -2.18994,-0.93564 -2.36933,0.72942 -5.14612,3.52313 -0.18576,0.1869 0.52044,0.1081 0.7839,0.10235 0.82246,-0.0179 1.18179,-0.20831 1.94846,-0.47122 2.4388,-1.25553 3.38743,-1.7174 6.57578,-3.95313 0.38299,-0.26856 0.17188,-1.03062 0.004,-1.30038 -0.13264,-0.21259 -0.32978,-0.38343 -0.53276,-0.53036 -0.21066,-0.15248 -0.46236,-0.23819 -0.69354,-0.35729 -0.59906,-0.19812 -0.80637,-0.29974 -1.42139,-0.38114 -2.42977,-0.32159 -4.96085,2.16508 -6.47804,3.18153 -0.12121,0.0812 0.0729,0.28256 0.10935,0.42384 0.11959,0.13122 0.20956,0.29743 0.35876,0.39366 0.22249,0.1435 0.73535,0.22962 0.98592,0.095 1.90601,-1.02367 3.78956,-2.09246 5.62816,-3.23278 0.13789,-0.0855 0.21278,-0.25835 0.25389,-0.41531 0.0415,-0.15854 -0.0109,-0.3276 -0.0164,-0.49139 -0.11453,-0.16773 -0.19893,-0.36063 -0.34359,-0.5032 -1.02576,-1.01098 -2.63378,-0.48614 -3.74409,0.006 4.71756,-0.0212 -5.96127,1.67551 -5.84617,4.04181 0.0548,1.126 1.39079,1.26847 2.21233,1.30273 2.73569,-0.51575 1.63726,-0.22864 6.40593,-3.44359 0.39921,-0.26914 -0.088,-1.1136 -0.21976,-1.26557 -0.39393,-0.45445 -0.87951,-0.59098 -1.40487,-0.81297 -0.25181,-0.0434 -0.50054,-0.11209 -0.75541,-0.13014 -2.36361,-0.1674 -6.31657,3.08782 -6.85279,3.44115 -0.15257,0.10053 -0.14893,0.34564 -0.14601,0.52832 0.004,0.24157 0.11048,0.47041 0.16572,0.70561 0.15991,0.23832 0.28213,0.50683 0.47973,0.71496 2.61472,2.75397 6.82108,-1.41643 8.67369,-2.49757 0.20877,-0.48124 0.33231,-0.54848 0.20202,-1.08274 -0.1421,-0.58268 -0.80748,-1.03511 -1.41084,-0.7252 -2.01497,1.03497 -3.94094,2.23477 -5.91141,3.35215 -0.91433,0.69864 -1.61685,1.34252 -0.50485,2.23367 0,0 5.09956,-3.3775 5.09956,-3.3775 v 0 c -0.60935,0.21031 0.756,-0.94666 1.02281,-1.01633 -1.49723,0.84043 -2.98191,1.70362 -4.49169,2.52128 -0.0995,0.0539 0.54438,-0.45197 0.67307,-0.42206 0.28054,0.0652 -0.1786,0.82255 -0.31293,0.74218 1.57124,-0.87441 3.14384,-1.74639 4.71373,-2.62323 0.18491,-0.10328 -0.35633,0.24022 -0.55875,0.30253 -0.91018,0.28021 -1.87052,-0.13109 -2.30697,-0.95092 0.005,-0.12709 -0.0347,-0.26405 0.0146,-0.38127 0.046,-0.10936 0.35638,-0.30773 0.25187,-0.25154 -12.85194,6.90973 -5.00856,2.44337 -3.71671,2.29153 0.22103,-0.026 0.4451,-0.002 0.66764,-0.002 0.33392,0.1026 0.83194,0.21337 1.12507,0.44617 0.28849,0.22911 -0.1299,0.48269 -0.12946,0.48246 6.57012,-3.41741 6.15449,-3.21639 4.10184,-2.34568 -0.42264,0.0504 -1.14352,0.23506 -1.52442,-0.0928 -0.16838,-0.14494 0.19832,-0.46932 0.20561,-0.479 -1.53745,0.85205 -3.0749,1.7041 -4.61234,2.55615 0.9288,-0.55483 2.24624,-1.29093 3.2999,-0.56963 -0.10805,0.16778 -0.59914,0.51823 -0.42387,0.4228 1.62414,-0.8843 3.22533,-1.81013 4.83799,-2.7152 -0.20293,0.13491 -0.55214,0.26316 -0.68174,0.45928 1.52301,1.40504 0.15002,0.0755 -4.92828,2.93429 -0.11785,0.0663 0.22383,-0.16036 0.35327,-0.19956 0.61613,-0.18657 1.27488,0.003 1.86653,0.16858 0.15567,0.0596 0.76354,0.24339 0.91444,0.4456 0.21208,0.28418 -0.28856,0.67924 -0.24372,0.65683 2.81022,-1.40475 6.32213,-3.65263 3.71664,-2.00093 -0.77419,0.35753 -0.92676,0.489 -1.75413,0.64268 -0.20384,0.0379 -0.44085,-0.0598 -0.62042,0.0438 -1.82922,1.05562 -3.54948,2.2902 -5.34657,3.39965 -0.10326,0.0637 0.29652,-0.449 0.30537,-0.19827 0.0815,0.0203 0.21464,-0.012 0.243,0.0671 0.007,0.0205 -0.3212,0.20886 -0.19244,0.13676 5.82289,-3.26068 6.5941,-3.67403 4.60297,-2.59948 -1.16676,0.39185 -1.29561,-0.1173 -1.58322,-1.11918 -0.25951,-0.354 -0.36403,-0.53874 -0.81771,-0.37716 -0.12324,0.0439 -0.28319,0.26589 -0.35877,0.15911 -0.0582,-0.0823 -0.0329,-0.19889 -0.0494,-0.29834 0.0192,-0.11689 0.007,-0.24377 0.0577,-0.35067 0.0523,-0.10955 0.34819,-0.32932 0.24034,-0.27359 -1.6492,0.85219 -3.25685,1.78251 -4.88527,2.67377 0.17008,-0.0568 0.33166,-0.15424 0.51025,-0.17041 0.31144,-0.0282 0.88243,0.13765 1.17864,0.21041 0,0 5.01507,-3.4592 5.01507,-3.4592 z" />
    <path
       style="fill:#000000;fill-opacity:1;fill-rule:nonzero;stroke:none"
       id="path1744"
       d="m 28.811089,237.33033 c -0.07241,-0.14415 -0.142138,-0.28968 -0.217225,-0.43245 -0.06859,-0.13042 -0.154242,-0.25214 -0.213713,-0.38696 -0.02822,-0.064 -0.03713,-0.13517 -0.04713,-0.20436 -0.0022,-0.0151 0.02415,-0.0524 0.01115,-0.0444 -5.273863,3.24756 -6.476731,1.66674 -4.992171,3.43902 0.08238,0.0882 0.166271,0.17502 0.247155,0.2646 0.07369,0.0816 0.151448,0.16022 0.216485,0.24887 0.04611,0.0628 0.08477,0.13172 0.115331,0.20343 0.0086,0.0203 -0.01918,0.0777 -4.67e-4,0.0661 5.285537,-3.28037 6.027527,-1.42575 5.042906,-3.56012 -0.328022,-0.73141 -0.649199,-1.47169 -0.920843,-2.22688 -0.136947,-0.68139 -0.394904,-1.32694 -0.538765,-2.00679 -0.148735,-0.73615 -0.07609,-1.49205 -0.20991,-2.22741 -0.207939,-0.82677 -0.271971,-1.67725 -0.315826,-2.52556 0.02574,-1.08743 -0.11118,-2.15504 -0.246911,-3.23047 -0.165427,-1.06891 -0.314336,-2.15329 -0.56598,-3.20668 -0.221663,-0.86535 -0.344824,-1.74566 -0.55635,-2.61286 -0.236408,-0.80626 -0.403973,-1.64157 -0.671718,-2.43818 -0.330353,-0.98109 -0.673624,-1.95838 -0.945001,-2.95887 -0.330039,-0.92256 -0.547207,-1.87629 -0.817504,-2.8164 -0.424197,-1.15964 -0.752548,-2.3543 -1.077859,-3.54524 -0.482324,-1.4575 -0.910176,-2.92768 -1.277888,-4.41844 -0.278002,-1.24674 -0.587049,-2.48261 -0.75326,-3.75065 -0.313465,-1.27042 -0.368414,-2.57894 -0.537978,-3.87053 -0.185979,-1.24406 -0.30548,-2.49505 -0.366161,-3.75102 -0.04758,-1.30515 -0.048,-2.61127 -0.04137,-3.91707 0.0078,-1.31522 -0.0075,-2.6303 -4.3e-4,-3.94555 -0.0028,-1.17054 0.01524,-2.34101 0.01226,-3.51153 -0.01027,-1.09008 0.0042,-2.18016 2.7e-4,-3.27024 0.0011,-0.98378 -0.220995,-1.94916 -0.311265,-2.92816 -0.107244,-0.96009 -0.02023,-1.93232 -0.158474,-2.88732 -0.216136,-1.02256 -0.235157,-2.06954 -0.380572,-3.10082 -0.214919,-0.99822 -0.200778,-2.03294 -0.406083,-3.02946 -0.190674,-0.96477 -0.388382,-1.92921 -0.558022,-2.89888 -0.159622,-0.9482 -0.205176,-1.90899 -0.227662,-2.86854 -0.165644,-0.89454 -0.293891,-1.79067 -0.360002,-2.6981 -0.05853,-1.02645 -0.06709,-2.05487 -0.06832,-3.0827 0.0023,-0.95128 0.0081,-1.90255 0.01118,-2.85382 -0.01878,-1.21996 -0.01977,-2.43988 -0.01304,-3.65995 0.01057,-1.01383 0.0097,-2.02765 0.0089,-3.0415 0.0012,-0.91577 0.004,-1.83153 0.0055,-2.7473 -0.0033,-1.05641 -0.0088,-2.11278 -0.0163,-3.16918 -0.04298,-1.31351 0.06925,-2.63349 -0.05634,-3.9425 -0.148682,-1.12409 -0.242266,-2.24891 -0.443,-3.36511 -0.119227,-0.98998 -0.346257,-1.95823 -0.502728,-2.94159 -0.156245,-1.60436 -0.471097,-3.18547 -0.738837,-4.77326 -0.175072,-1.05823 -0.216256,-2.12417 -0.431633,-3.17449 -0.173632,-0.82027 -0.228705,-1.65689 -0.260245,-2.49257 -0.118204,-1.20329 -0.261992,-2.41254 -0.416829,-3.61475 -0.192312,-1.89222 -0.380783,-3.78205 -0.60853,-5.6706 -0.195901,-1.20874 -0.118944,-2.44382 -0.286223,-3.65245 -0.221889,-1.1104 -0.289177,-2.23915 -0.335998,-3.36778 -0.03655,-1.235567 -0.02831,-2.471817 -0.02165,-3.707721 -0.01161,-1.28715 -0.01478,-2.574423 -0.01137,-3.861623 -0.0054,-1.453467 2.54e-4,-2.906977 -0.0066,-4.360424 -0.0084,-1.687199 -0.0086,-3.374332 -0.0043,-5.061535 0.03517,-1.558944 -0.04073,-3.118498 0.04873,-4.675334 0.115527,-1.399124 0.265421,-2.79485 0.346869,-4.196593 0.06361,-0.941677 0.0092,-1.886358 0.09844,-2.825436 0.137015,-1.116844 0.253182,-2.235313 0.317035,-3.358794 0.04481,-1.028138 0.03353,-2.057772 0.03681,-3.086648 -0.09366,-0.870757 0.16884,-1.697109 0.274186,-2.550276 0.109513,-0.968978 0.118218,-1.945588 0.133795,-2.919554 0.01039,-1.04917 -10e-7,-2.098409 0.0015,-3.147623 0.0026,-0.93366 0.0054,-1.867319 0.0069,-2.800982 0.0042,-0.865568 -0.0015,-1.7311 -0.0041,-2.596651 -3.94e-4,-0.91025 0.0024,-1.820499 0.0038,-2.730748 -0.01551,-0.885983 -0.227164,-1.755286 -0.316418,-2.637812 -0.07892,-0.900264 -0.089,-1.804424 -0.0953,-2.707504 -0.017,-1.040863 -0.01121,-2.08184 -0.0063,-3.122769 0.0047,-0.885134 0.0069,-1.770277 0.008,-2.655421 -0.08324,-0.524767 -0.03625,-0.270028 -0.139112,-0.764555 0,0 -5.3820228,2.875515 -5.3820228,2.875515 v 0 c 0.080405,0.434694 0.048944,0.216753 0.094693,0.653779 6.786e-4,0.882809 0.00196,1.765617 0.00478,2.648422 0.00291,1.044958 0.00373,2.089894 -0.00139,3.134841 0.013694,0.919016 0.037331,1.838808 0.1295096,2.753923 0.093666,0.862284 0.2888655,1.715885 0.2791698,2.585452 0.0014,0.908976 0.00414,1.817952 0.00374,2.72693 -0.0026,0.866951 -0.00838,1.733884 -0.00364,2.600851 0.00213,0.93076 0.00622,1.861512 0.010833,2.792264 0.0032,1.047401 -0.00108,2.094782 -0.013784,3.142114 -0.016126,0.953544 -0.038829,1.909858 -0.180381,2.854743 -0.1491522,0.869325 -0.2872836,1.732381 -0.2171589,2.619734 -4.96e-4,1.020321 -0.00739,2.041024 -0.059353,3.060257 -0.064724,1.115383 -0.1790664,2.226045 -0.3104007,3.335469 -0.075617,0.947788 -0.052412,1.897927 -0.097801,2.84757 -0.06866,1.390243 -0.1877025,2.776883 -0.2842328,4.165342 -0.077759,1.5695 -0.064251,3.140644 -0.049561,4.711716 0.00436,1.688656 0.00414,3.377242 -0.00433,5.065895 -0.00697,1.455864 -0.00153,2.911791 -0.00831,4.367673 0.00197,1.29231 -0.00419,2.584661 -0.015853,3.876914 0.010453,1.235969 0.030818,2.471859 0.0697,3.707289 0.037801,1.15362 0.095887,2.30524 0.3207143,3.4406 0.1521787,1.20216 0.1200919,2.42541 0.3363166,3.6224 0.2524461,1.88265 0.4687512,3.76572 0.6139198,5.6604 0.1246698,1.20262 0.2371056,2.40824 0.3275413,3.61274 0.044697,0.86385 0.1228982,1.72631 0.3060123,2.57345 0.2024877,1.03942 0.2670505,2.09674 0.4758125,3.13613 0.2953775,1.5821 0.587085,3.166 0.706809,4.77358 0.145084,0.99027 0.350376,1.97069 0.502085,2.96025 0.197876,1.0976 0.27266,2.2078 0.42212,3.31254 0.09625,1.29414 0.02538,2.59503 0.04198,3.8917 -0.0075,1.06194 -0.01299,2.12385 -0.0163,3.1858 0.0015,0.9139 0.0043,1.8278 0.0055,2.7417 -7.74e-4,1.01082 -0.0017,2.02162 0.0088,3.03242 0.0065,1.22469 0.0052,2.44925 -0.01543,3.67381 10e-4,0.94891 0.0031,1.89781 0.0095,2.8467 0.007,1.04328 -0.0041,2.08824 0.07771,3.12917 0.0767,0.89786 0.215197,1.78417 0.339914,2.67559 0.03789,0.98375 0.110033,1.96692 0.287402,2.93679 0.176329,0.97458 0.34608,1.95071 0.539249,2.92115 0.182243,0.98422 0.221518,1.99409 0.418054,2.97771 0.119721,1.03675 0.153289,2.0835 0.353754,3.11094 0.09292,0.95198 0.0538,1.9137 0.164653,2.86541 0.09411,0.95997 0.294133,1.91111 0.284361,2.87724 -0.0039,1.08997 0.01059,2.17995 2.51e-4,3.26992 -0.0031,1.16654 0.01456,2.33303 0.01042,3.49958 0.0054,1.3168 -0.01291,2.63337 -0.0067,3.95012 0.0086,1.31508 0.0017,2.63091 0.05092,3.94522 0.06371,1.26694 0.224436,2.52236 0.410166,3.77696 0.145489,1.30398 0.223947,2.61706 0.508803,3.90205 0.20388,1.27641 0.530799,2.52505 0.819513,3.78407 0.378062,1.49318 0.812536,2.96619 1.275986,4.43464 0.327919,1.1969 0.641243,2.40137 1.040512,3.57629 0.274104,0.93511 0.501643,1.88305 0.83299,2.80094 0.28909,1.00647 0.613967,2.00208 0.930051,2.99969 0.254546,0.78407 0.438502,1.59527 0.655133,2.39043 0.207634,0.86341 0.326803,1.7441 0.564335,2.60103 0.230455,1.03864 0.40621,2.09354 0.546384,3.14776 0.135024,1.06351 0.22007,2.12353 0.21836,3.19665 0.05041,0.87082 0.126569,1.74036 0.32221,2.59273 0.09778,0.75117 0.05008,1.51971 0.22642,2.26257 0.165583,0.7001 0.412236,1.37713 0.582473,2.07592 0.29079,0.76442 0.620768,1.51438 0.938498,2.26764 0.997086,2.21347 0.114749,0.57095 5.641651,-2.42329 0.07617,-0.0413 -0.594674,-0.84089 -0.701077,-0.9299 -1.415019,-1.90947 -0.143112,-0.36915 -5.6629,2.63063 -0.0088,0.005 0.207694,0.38365 0.367011,0.69577 0.06974,0.13663 0.126598,0.27946 0.189897,0.41918 0,0 5.316714,-2.98602 5.316714,-2.98602 z" />
    <path
       style="fill:#000000;fill-opacity:1;fill-rule:nonzero;stroke:none"
       id="path1746"
       d="m 217.9561,36.65944 c 0.20489,1.151883 0.22491,2.327921 0.42398,3.478863 0.23336,0.881253 0.23393,1.804578 0.43528,2.688323 0.20534,0.809102 0.30231,1.634102 0.48718,2.448092 0.21121,0.892901 0.25832,1.81011 0.29073,2.723458 0.0416,0.899068 -0.0369,1.800953 0.0841,2.693656 0.17811,1.12768 0.25948,2.266736 0.30969,3.406266 0.0358,1.071565 0.0434,2.143933 0.0473,3.216021 -0.003,1.093244 -0.0113,2.186369 -0.005,3.27961 0.01,1.148612 -6.6e-4,2.297272 -0.007,3.445878 0.0633,0.954579 -0.0667,1.882843 -0.20707,2.822831 -0.16054,0.883234 -0.11955,1.787014 -0.25953,2.670495 -0.22061,1.063022 -0.26743,2.142544 -0.30607,3.223569 -0.0189,1.28634 -0.025,2.563548 -0.17116,3.842333 -0.13764,1.258513 -0.21582,2.522722 -0.26505,3.787502 -0.0307,0.902697 -0.0324,1.806003 -0.0333,2.709113 0.005,0.91872 0.007,1.837435 0.006,2.756181 -0.002,0.940274 0.004,1.880503 0.002,2.820783 0.0233,1.295277 0.0138,2.590701 0.0142,3.886077 0.007,1.200085 -0.0113,2.400114 -0.009,3.600185 -0.002,1.054239 3e-4,2.108449 -0.003,3.162689 -0.001,1.130545 0.0112,2.260975 0.008,3.391545 -0.009,1.02379 -0.008,2.04756 -0.008,3.07136 0.005,1.17425 0.0117,2.34847 0.007,3.52273 -0.005,1.14005 4.2e-4,2.2801 -0.004,3.42015 0.0167,1.1922 0.22705,2.37171 0.31946,3.56081 0.22957,1.32368 0.31668,2.66574 0.5066,3.99378 0.15284,1.405 0.46043,2.78421 0.6412,4.1851 0.17872,1.51068 0.38426,3.01566 0.49818,4.53373 0.12736,1.34807 0.019,2.70736 0.15688,4.05256 0.18082,1.33031 0.26593,2.66975 0.31342,4.01058 0.17113,1.31131 0.3109,2.62379 0.38617,3.94417 -0.0209,1.12481 0.10246,2.22598 0.25968,3.33607 0.1263,1.14633 0.17363,2.29218 0.33325,3.43485 0.21705,1.3529 0.1945,2.72619 0.33606,4.08545 0.20478,1.58081 0.28838,3.17207 0.34021,4.76402 0.17617,1.65961 0.31706,3.32072 0.39042,4.9881 0.0826,1.85204 0.0716,3.70618 0.055,5.55941 0.0148,1.70323 -0.0249,3.40746 0.072,5.10843 0.15257,1.74782 0.25778,3.49776 0.31018,5.25134 0.0269,1.55237 0.0281,3.10509 0.0315,4.65766 0.10183,1.71626 0.31918,3.42035 0.60858,5.11421 0.33279,2.20888 0.8468,4.38428 1.28268,6.57382 0.30546,1.94163 0.62514,3.88249 0.82042,5.83908 0.27186,1.97834 0.42915,3.96848 0.65378,5.95222 0.13533,1.71873 0.32318,3.42954 0.51208,5.1429 0.26083,1.6272 0.55239,3.24982 0.77259,4.88317 0.20208,1.65788 0.6057,3.27908 0.87107,4.92588 0.29755,1.40468 0.56392,2.81691 0.89066,4.2152 0.31269,1.34375 0.67187,2.67899 1.09557,3.99231 0.472,1.20137 0.86654,2.43951 1.45913,3.58851 0.51926,0.90743 0.98075,1.85097 1.60281,2.69334 0.70506,0.89248 1.49648,1.7081 2.25812,2.55087 0.38653,0.43037 0.78035,0.78934 1.37971,0.76041 0,0 4.88228,-3.69436 4.88228,-3.69436 v 0 c -0.55183,0.21303 -0.55956,0.31446 -1.06403,-0.21877 -0.75617,-0.82112 -1.55218,-1.60565 -2.24085,-2.48771 -0.60308,-0.81759 -1.02028,-1.75154 -1.55436,-2.61469 -0.59305,-1.10751 -0.96616,-2.32137 -1.42472,-3.48812 -0.41587,-1.29813 -0.76498,-2.61702 -1.07662,-3.94386 -0.31351,-1.39141 -0.60169,-2.78831 -0.86968,-4.18896 -0.29976,-1.62916 -0.72421,-3.2346 -0.89685,-4.88618 -0.21595,-1.63321 -0.49353,-3.25775 -0.74722,-4.88538 -0.21057,-1.70482 -0.37055,-3.41278 -0.54801,-5.1211 -0.2215,-1.98406 -0.38325,-3.97309 -0.63767,-5.95366 -0.20502,-1.96954 -0.55021,-3.92131 -0.87953,-5.87304 -0.44171,-2.18473 -0.94851,-4.35838 -1.24625,-6.56954 -0.26406,-1.67088 -0.45614,-3.35413 -0.53123,-5.04487 -8.1e-4,-1.55342 -0.008,-3.10694 -0.0663,-4.65949 -0.0543,-1.75704 -0.14712,-3.51142 -0.31844,-5.26143 -0.0786,-1.69905 -0.009,-3.39972 -0.0237,-5.10018 -0.0274,-1.85617 -0.0553,-3.7124 -0.0925,-5.56838 -0.0749,-1.66768 -0.22108,-3.32774 -0.37506,-4.98966 -0.0602,-1.60385 -0.15981,-3.20624 -0.34522,-4.80103 -0.11357,-1.37189 -0.11736,-2.75415 -0.32692,-4.11749 -0.14727,-1.14625 -0.1761,-2.29871 -0.32071,-3.44507 -0.14987,-1.09092 -0.24926,-2.17841 -0.26099,-3.28139 -0.082,-1.31652 -0.24065,-2.62367 -0.38098,-3.93457 -0.0644,-1.34996 -0.1596,-2.69783 -0.31676,-4.04056 -0.0983,-1.34363 -0.0611,-2.69445 -0.17517,-4.03784 -0.13143,-1.52564 -0.34692,-3.04136 -0.50718,-4.56387 -0.18967,-1.39906 -0.49817,-2.7786 -0.64225,-4.18456 -0.16042,-1.32107 -0.28426,-2.64605 -0.48946,-3.96182 -0.0777,-1.18037 -0.28504,-2.35036 -0.27614,-3.53436 -0.004,-1.13886 0.002,-2.2777 -0.004,-3.41655 -0.004,-1.1768 0.003,-2.35356 0.007,-3.53034 5.9e-4,-1.02123 0.001,-2.04243 -0.008,-3.063651 -0.004,-1.13318 0.009,-2.266226 0.008,-3.399387 -0.004,-1.053111 -0.001,-2.106194 -0.003,-3.159305 0.002,-1.197056 -0.0163,-2.394067 -0.009,-3.591136 3.5e-4,-1.300203 -0.009,-2.600452 0.0142,-3.900557 -0.002,-0.940849 0.003,-1.881653 6.9e-4,-2.822494 -0.002,-0.919709 -0.003,-1.839398 0.001,-2.759095 -2.6e-4,-0.893437 -6.2e-4,-1.787024 0.024,-2.680201 0.041,-1.249877 0.11431,-2.498672 0.26519,-3.740717 0.12476,-1.290355 0.12135,-2.581409 0.15623,-3.876496 0.055,-1.070386 0.17082,-2.133035 0.35749,-3.18899 0.0978,-0.886553 0.11134,-1.781772 0.2613,-2.663226 0.13619,-0.963494 0.21399,-1.925476 0.16517,-2.899893 -0.006,-1.146535 -0.0159,-2.293132 -0.005,-3.439664 0.008,-1.092721 0.003,-2.185366 -0.001,-3.278101 3.1e-4,-1.08336 0.0109,-2.167606 -0.0494,-3.249831 -0.0708,-1.149197 -0.1792,-2.295243 -0.315,-3.438621 -0.0618,-0.885092 -0.0187,-1.773739 -0.0677,-2.659922 -0.0468,-0.947097 -0.10797,-1.897843 -0.33579,-2.821998 -0.17955,-0.813371 -0.26099,-1.643056 -0.47498,-2.44901 -0.17591,-0.876553 -0.22672,-1.778123 -0.44651,-2.64839 -0.17482,-1.126759 -0.2695,-2.270267 -0.34727,-3.406974 0,0 -5.438,2.770799 -5.438,2.770799 z" />
    <path
       style="fill:#000000;fill-opacity:1;fill-rule:nonzero;stroke:none"
       id="path1748"
       d="m 238.07297,238.56199 c -1.0898,-0.52164 -2.11297,-1.17865 -3.04132,-1.95063 -0.59963,-0.48974 -1.18292,-1.00369 -1.72668,-1.55535 -0.41991,-0.41234 -0.84499,-0.82063 -1.25056,-1.2473 -0.45975,-0.45412 -1.02315,-0.78558 -1.54945,-1.15561 -0.71671,-0.48301 -1.44725,-0.94525 -2.20429,-1.36233 -0.9143,-0.53818 -1.8231,-1.08444 -2.75731,-1.58747 -1.04118,-0.64743 -2.14673,-1.16427 -3.28429,-1.61536 -1.14347,-0.47633 -2.27018,-0.98889 -3.41595,-1.45947 -1.11038,-0.40851 -2.25802,-0.71773 -3.40452,-1.00787 -1.52663,-0.32 -3.05985,-0.60492 -4.59196,-0.89698 -1.33528,-0.24348 -2.65049,-0.56533 -3.9987,-0.73273 -1.49525,-0.21798 -3.00059,-0.34598 -4.50103,-0.5176 -1.78846,-0.21282 -3.55828,-0.55763 -5.32745,-0.89049 -1.83361,-0.28234 -3.61389,-0.80351 -5.38665,-1.33658 -1.48079,-0.48842 -2.99867,-0.85754 -4.4676,-1.38023 -1.66253,-0.61314 -3.32155,-1.23616 -4.98874,-1.83665 -1.66968,-0.68058 -3.4321,-1.04467 -5.19456,-1.38893 -1.93237,-0.33859 -3.86281,-0.6721 -5.81609,-0.86259 -2.30615,-0.2767 -4.62346,-0.39349 -6.94344,-0.46785 -2.41419,-0.0348 -4.83068,-0.13291 -7.24474,-0.0581 -1.9982,0.11536 -3.9936,0.26791 -5.97809,0.53098 -1.86132,0.23377 -3.70779,0.56886 -5.56677,0.81766 -1.6583,0.13711 -3.29723,0.40448 -4.93475,0.68962 -1.53591,0.2307 -3.08459,0.37299 -4.62923,0.53595 -1.69803,0.17553 -3.40515,0.21719 -5.11063,0.24917 -1.66699,0.0269 -3.33415,0.008 -5.00122,0.009 -1.53429,-0.008 -3.06859,-0.001 -4.60288,0.002 -1.6919,-0.005 -3.38045,-0.03 -5.06835,0.0967 -1.76946,0.14533 -3.52968,0.39766 -5.28401,0.66782 -1.53571,0.21165 -3.07093,0.36012 -4.58743,0.6889 -1.15916,0.21121 -2.2817,0.56847 -3.38095,0.98595 -0.85544,0.36948 -1.71003,0.73801 -2.57049,1.09579 -1.077135,0.39937 -2.173801,0.74298 -3.257599,1.12372 -1.139424,0.37533 -2.300559,0.68321 -3.466589,0.96382 -1.605813,0.39204 -3.229673,0.68932 -4.832284,1.09517 -1.450664,0.43764 -2.945752,0.68381 -4.417687,1.03116 -1.118269,0.23487 -2.235004,0.48021 -3.36459,0.65486 -1.209547,0.19024 -2.407017,0.44724 -3.607117,0.68801 -1.192817,0.22994 -2.354761,0.58639 -3.535744,0.86516 -1.120791,0.27519 -2.228117,0.61301 -3.32437,0.97414 -0.758474,0.26852 -1.484326,0.61664 -2.196925,0.98744 -0.822244,0.38656 -1.640311,0.78551 -2.475931,1.14265 -1.12786,0.37997 -2.178946,0.93222 -3.233572,1.47532 -0.776577,0.39676 -1.539025,0.82673 -2.334479,1.18501 -1.844261,1.06998 -3.691307,2.13518 -5.532782,3.20995 -0.564474,0.32946 -0.04049,0.0545 -0.606027,0.42356 -0.106578,0.0696 -0.442597,0.2515 -0.332614,0.18746 1.624772,-0.94603 6.539373,-3.71174 4.877009,-2.83345 -1.883186,0.99496 -3.693299,2.12247 -5.539949,3.18371 -0.06741,0.0709 -0.134811,0.14181 -0.202216,0.21271 0,0 5.675991,-2.27874 5.675991,-2.27874 v 0 c 0.07295,-0.0417 0.1459,-0.0834 0.21885,-0.12511 -16.606315,9.51187 13.043506,-7.49012 -3.325888,1.81854 0.793479,-0.39901 1.604008,-0.75413 2.385507,-1.18027 1.007762,-0.59094 2.061608,-1.12766 3.162331,-1.52481 0.865974,-0.29615 1.65976,-0.74916 2.508685,-1.08689 0.722443,-0.36039 1.422348,-0.73817 2.15732,-1.0749 1.090186,-0.35885 2.181023,-0.71491 3.287055,-1.02303 1.192338,-0.24441 2.346247,-0.63046 3.536389,-0.88392 1.198801,-0.22763 2.389655,-0.48869 3.588077,-0.7179 1.146813,-0.13331 2.268127,-0.38561 3.399691,-0.60735 1.484574,-0.35107 2.98314,-0.63193 4.45331,-1.04645 1.597727,-0.40344 3.203463,-0.74113 4.810317,-1.10318 1.181732,-0.23179 2.337724,-0.55241 3.492134,-0.89121 1.078808,-0.37458 2.154065,-0.75815 3.248813,-1.0851 0.878089,-0.33107 1.733804,-0.70854 2.588241,-1.0947 1.06671,-0.49026 2.199693,-0.85324 3.346653,-1.09666 0.48494,-0.10903 0.96438,-0.24353 1.45258,-0.33689 1.03475,-0.19787 2.09929,-0.19092 3.1332,-0.39893 1.74411,-0.27097 3.4915,-0.5366 5.24938,-0.69653 1.67872,-0.14573 3.35516,-0.16885 5.04045,-0.13662 1.53018,0.004 3.06036,0.0115 4.59055,0.007 1.67451,0.004 3.34906,-0.01 5.02356,-0.0149 1.71398,-0.0147 3.42934,-0.051 5.13749,-0.20416 1.54818,-0.14883 3.09517,-0.31016 4.63947,-0.48889 1.63674,-0.28779 3.26472,-0.63051 4.92937,-0.72088 1.87534,-0.22566 3.72561,-0.612 5.60222,-0.83159 1.97046,-0.30698 3.95576,-0.42441 5.9425,-0.57641 2.41657,-0.15124 4.84279,-0.0311 7.26213,-0.0121 2.29211,0.0709 4.58507,0.17684 6.85964,0.48626 1.95151,0.15502 3.87797,0.46312 5.80635,0.79489 1.73213,0.32772 3.46191,0.69334 5.10695,1.34314 1.67615,0.56568 3.32838,1.19816 4.98463,1.81918 1.45815,0.58962 2.99804,0.92422 4.48847,1.42281 1.8008,0.51567 3.59413,1.0806 5.45195,1.35897 1.76028,0.35666 3.52543,0.70455 5.30393,0.95452 1.49436,0.21394 3.01244,0.24576 4.49899,0.53146 1.34917,0.13407 2.66022,0.43576 3.99053,0.6835 1.52221,0.28255 3.04083,0.57998 4.56002,0.87807 1.1206,0.26907 2.22322,0.61702 3.32632,0.94876 1.14868,0.48629 2.31645,0.92744 3.4514,1.44834 1.11245,0.44212 2.20733,0.92247 3.21687,1.57424 0.9288,0.5051 1.85562,1.01026 2.74257,1.58809 0.7322,0.41275 1.45063,0.8377 2.15022,1.30546 0.48177,0.37087 1.00157,0.68565 1.47382,1.06312 0.39435,0.44381 0.83669,0.84491 1.26319,1.25673 0.54691,0.58116 1.17173,1.09031 1.79163,1.59097 0.96168,0.81739 2.04898,1.44725 3.11544,2.11595 0,0 5.0743,-3.3816 5.0743,-3.3816 z" />
    <path
       style="fill:#000000;fill-opacity:1;fill-rule:nonzero;stroke:none"
       id="path1750"
       d="m 83.943586,227.38163 c -0.187565,0.10239 -0.377128,0.2012 -0.562695,0.30717 -0.221892,0.12671 -0.438763,0.26204 -0.659494,0.39077 -3.461623,2.01876 6.430683,-3.59603 3.00771,-1.7869 -0.207118,0.10947 -0.415931,0.2157 -0.623896,0.32355 -1.133027,0.5418 -2.309637,0.98453 -3.471798,1.45855 -0.962734,0.43161 -1.940877,0.82115 -2.952841,1.12072 -1.179295,0.30021 -2.350708,0.62847 -3.52619,0.94293 -1.452492,0.40018 -2.940454,0.66098 -4.416774,0.95808 -1.156728,0.22534 -2.324628,0.36085 -3.471805,0.63269 -0.758815,0.20419 -1.543108,0.24116 -2.321308,0.30943 -0.826166,0.12423 -1.641603,0.29129 -2.451372,0.49464 -0.935196,0.18389 -1.854199,0.42504 -2.751014,0.74732 -0.76781,0.35981 -1.560716,0.66261 -2.331463,1.01505 -2.591646,1.20397 -4.994424,2.76543 -7.475989,4.17634 -1.850483,1.24914 -0.757878,0.50091 4.489765,-2.58369 0.125322,-0.0737 -0.258974,0.13219 -0.387034,0.20099 -0.375151,0.20153 -0.74699,0.41045 -1.119212,0.61738 -0.708679,0.31034 -1.379731,0.69628 -2.074584,1.03441 -0.740078,0.32162 -1.472369,0.66182 -2.20487,1.00053 0,0 -4.760195,3.77299 -4.760195,3.77299 v 0 c 0.734471,-0.31492 1.454869,-0.65979 2.178417,-0.99927 0.74388,-0.2601 1.377716,-0.72335 2.112573,-0.9984 2.567931,-1.24212 4.882502,-3.00675 7.454568,-4.23237 1.751386,-1.05202 3.096934,-1.85701 -4.537858,2.58477 -0.127498,0.0742 0.270633,-0.11788 0.402039,-0.18489 0.386429,-0.19706 0.769697,-0.39985 1.151983,-0.60521 0.77863,-0.34367 1.552531,-0.6786 2.332658,-1.02056 0.827793,-0.44051 1.760302,-0.66172 2.677785,-0.83301 0.808943,-0.17828 1.595953,-0.42029 2.419895,-0.53021 0.770886,-0.17647 1.580337,-0.0751 2.352694,-0.27482 1.16869,-0.27053 2.326688,-0.53766 3.519885,-0.6937 1.470876,-0.29365 2.948101,-0.56319 4.410917,-0.88792 1.155168,-0.36675 2.343473,-0.62745 3.509898,-0.9569 1.040603,-0.22426 2.048744,-0.59425 3.005435,-1.06071 1.179189,-0.46396 2.348547,-0.95229 3.522175,-1.43118 3.169519,-1.56349 6.192911,-3.41712 9.215461,-5.24561 0,0 -5.663466,2.23704 -5.663466,2.23704 z" />
    <path
       style="fill:#000000;fill-opacity:1;fill-rule:nonzero;stroke:none"
       id="path1752"
       d="m 39.896581,244.65447 c 1.769833,-0.0265 3.537093,-0.004 5.303987,-0.12111 1.388675,-0.0931 2.776031,-0.28564 4.117745,-0.65975 1.298971,-0.40329 2.565602,-0.90491 3.823587,-1.42024 1.246103,-0.4759 2.460815,-1.02584 3.689702,-1.54221 1.519593,-0.55954 3.036805,-1.12639 4.54239,-1.72274 3.290083,-1.41612 6.320356,-3.3993 9.395084,-5.20257 2.096159,-1.37344 1.218114,-0.77996 -3.666055,2.08161 -0.236153,0.13836 0.474137,-0.27376 0.715426,-0.40296 0.725044,-0.38821 1.482883,-0.71106 2.229669,-1.05415 1.622358,-0.73597 3.260737,-1.44009 4.91362,-2.10514 0.239949,-0.10104 0.479897,-0.20209 0.719845,-0.30314 0,0 4.725149,-3.73927 4.725149,-3.73927 v 0 c -0.237884,0.10737 -0.475768,0.21473 -0.713652,0.3221 -1.662163,0.65982 -3.302375,1.37096 -4.942019,2.08508 -0.742641,0.35028 -1.517856,0.64404 -2.250792,1.01318 -2.527186,1.27281 -4.957894,2.75229 -7.33888,4.28263 9.06119,-5.17381 3.157614,-1.6898 0.943864,-0.69961 -1.49147,0.61048 -3.000862,1.17939 -4.518985,1.71967 -1.264553,0.43035 -2.43403,1.10634 -3.707596,1.52333 -1.228562,0.55277 -2.498257,1.02386 -3.774296,1.45236 -1.298648,0.48358 -2.69682,0.67133 -4.070409,0.80287 -1.736001,0.15281 -3.471703,0.17394 -5.213862,0.11291 0,0 -4.923522,3.57715 -4.923522,3.57715 z" />
    <path
       style="fill:#000000;fill-opacity:1;fill-rule:nonzero;stroke:none"
       id="path1754"
       d="m 71.244355,234.72247 c -1.755761,1.07613 -4.688456,2.8934 3.292864,-1.89717 0.239781,-0.14393 -0.49862,0.25342 -0.746777,0.38236 -1.356436,0.70482 -0.07306,0.0552 -1.407756,0.72459 -1.516451,0.7165 -3.143875,1.15089 -4.751989,1.60741 -1.56104,0.42308 -3.07396,1.00017 -4.601734,1.52685 -1.357989,0.49801 -2.744605,0.90891 -4.124518,1.34002 -1.293676,0.45807 -2.625704,0.70702 -3.976678,0.91869 -1.279871,0.24579 -2.570866,0.39956 -3.870858,0.47854 -1.583192,0.0754 -3.16847,0.0653 -4.75292,0.0634 -1.56181,-0.0146 -3.123646,-0.001 -4.68546,0.005 -1.744252,0.004 -3.48851,-0.003 -5.232725,-0.0145 -1.281326,-0.007 -2.56263,-3.5e-4 -3.843979,-0.005 -0.518289,-0.002 -1.036579,-0.004 -1.55487,-0.006 0,0 -4.917328,3.57266 -4.917328,3.57266 v 0 c 0.523951,-0.002 1.047902,-0.004 1.571851,-0.006 1.286146,-0.005 2.572244,0.002 3.858368,-0.005 1.756438,-0.0108 3.512923,-0.018 5.269394,-0.0125 1.553009,0.008 3.10602,0.025 4.65906,0.0141 1.584033,-0.002 3.168384,0.001 4.752162,-0.0264 1.320026,-0.0485 2.635532,-0.16267 3.930793,-0.4349 1.360321,-0.24253 2.708939,-0.33609 4.012756,-0.84288 1.387179,-0.43091 2.784644,-0.83315 4.145928,-1.34135 1.536122,-0.49568 3.030942,-1.11353 4.585026,-1.55457 1.62536,-0.43368 3.254225,-0.89355 4.816338,-1.52072 3.211558,-1.47645 6.246996,-3.34067 9.254973,-5.18937 0,0 -5.681921,2.22317 -5.681921,2.22317 z" />
    <path
       style="fill:#000000;fill-opacity:1;fill-rule:nonzero;stroke:none"
       id="path1756"
       d="m 25.400288,243.48077 c 1.727133,0.61148 3.443102,1.25172 5.191543,1.80228 1.718982,0.51233 3.495383,0.80682 5.263395,1.09499 1.336776,0.23163 2.691409,0.28111 4.044449,0.31275 1.135743,0.0133 2.272659,0.048 3.407362,-0.0116 1.079223,-0.076 2.12742,-0.35616 3.154445,-0.68178 1.036856,-0.27918 2.023335,-0.68719 3.004679,-1.11561 1.125054,-0.40611 2.167811,-0.99882 3.245594,-1.51034 1.626213,-0.75035 3.240207,-1.52628 4.871607,-2.26534 3.69549,-1.80768 7.215318,-3.95322 10.767083,-6.01983 2.055874,-1.34269 4.038514,-2.79403 6.117721,-4.1008 2.069872,-1.31619 7.35644,-4.3595 -2.015918,1.08987 0,0 4.734344,-3.80403 4.734344,-3.80403 v 0 c -2.781971,1.59346 -5.593527,3.13348 -8.282368,4.88074 -2.044509,1.34666 -4.037435,2.77033 -6.106705,4.07856 8.774327,-5.00623 1.584407,-0.88911 -0.521262,0.15231 -1.62115,0.72765 -3.227341,1.48563 -4.839882,2.23212 -1.078741,0.48806 -2.110141,1.05478 -3.193589,1.52585 -1.010855,0.32408 -1.923161,0.91547 -2.973658,1.14454 -1.020212,0.28948 -2.022496,0.69446 -3.088505,0.78662 -1.120432,0.14229 -2.255645,0.0463 -3.383,0.0733 -1.341416,-0.0159 -2.685345,-0.0482 -4.016221,-0.23321 -1.758179,-0.2522 -3.520639,-0.54301 -5.237125,-1.00179 -1.722255,-0.54024 -3.434959,-1.11077 -5.092034,-1.83007 0,0 -5.051955,3.40046 -5.051955,3.40046 z" />
    <path
       style="fill:#000000;fill-opacity:1;fill-rule:nonzero;stroke:none"
       id="path1758"
       d="m 80.514371,229.22877 c -1.935813,1.12374 -3.871625,2.24749 -5.807437,3.37124 -0.256862,0.15128 -1.028315,0.60364 -0.770585,0.45384 1.403755,-0.81588 2.815657,-1.61802 4.208671,-2.45211 0.316043,-0.18924 -0.647622,0.35147 -0.976735,0.51694 -0.748853,0.37648 -1.17571,0.55254 -1.939755,0.88843 -1.788368,0.87638 -3.701538,1.41096 -5.614686,1.93097 -2.160848,0.50973 -4.301424,1.09677 -6.446972,1.6661 -1.75792,0.47991 -3.498128,1.03102 -5.273423,1.44455 -1.490474,0.30849 -3.018445,0.32988 -4.534395,0.34843 -1.274611,0.004 -2.54922,3.1e-4 -3.823839,-1.8e-4 -0.493046,-0.003 -0.984833,0.0785 -1.477717,0.0314 -0.06692,-0.006 -0.248222,-0.0587 -0.201413,-0.0105 0.09801,0.10104 0.205653,0.19226 0.30848,0.28838 -8.918523,5.43757 -6.056466,3.24109 -3.952231,2.59567 0.936683,-0.28731 1.897975,-0.45685 2.858677,-0.64074 2.366423,-0.44483 4.767441,-0.62837 7.169324,-0.7335 1.821937,-0.12057 3.64971,-0.20191 5.450875,-0.513 1.624934,-0.24565 3.156485,-0.81561 4.645681,-1.48916 1.10513,-0.51591 2.230639,-0.98635 3.369048,-1.42319 3.157829,-0.78377 4.878948,-2.89664 7.333526,-4.45843 -9.363624,4.95008 -4.554559,2.59839 -2.233918,1.73433 1.132074,-0.43056 2.317535,-0.69465 3.489206,-0.99265 1.639003,-0.52636 3.335077,-0.82638 5.015432,-1.18365 1.591094,-0.36815 3.208763,-0.59788 4.813004,-0.89907 1.463562,-0.24714 2.911161,-0.60091 4.264998,-1.21668 2.410079,-1.25797 0.01292,0.003 6.057826,-3.52021 0.270347,-0.15757 1.085855,-0.62255 0.814886,-0.46605 -5.143542,2.97068 -6.415658,3.62151 -4.333991,2.54155 1.893071,-1.09977 3.793648,-2.18671 5.679213,-3.29929 0.383805,-0.22647 1.497519,-0.96544 1.110973,-0.74369 -1.510503,0.86651 -3.015371,1.743 -4.511506,2.63409 -0.223884,0.13334 0.45983,-0.24552 0.693784,-0.36028 0.223353,-0.10956 0.451838,-0.20833 0.677757,-0.3125 1.209364,-0.4765 2.438572,-0.91562 3.690501,-1.26702 1.349,-0.32608 2.71159,-0.56068 4.09206,-0.69724 1.53344,-0.0761 3.06168,-0.15656 4.59014,-0.30533 1.92361,-0.18792 3.85747,-0.21831 5.78868,-0.23557 1.5083,-10e-4 3.01657,-0.0111 4.52486,-0.0143 1.72059,-0.005 3.44116,-0.003 5.16173,0.006 1.76962,0.0769 3.52871,0.30094 5.28956,0.48331 1.80735,0.15549 3.59779,0.4452 5.40511,0.60264 1.54306,0.12163 3.09068,0.14668 4.63771,0.14456 1.76901,-0.004 3.53799,0.002 5.30699,0.003 1.619,0.10894 3.19984,-0.13371 4.7888,-0.39779 1.39657,-0.15794 2.77907,-0.40829 4.16912,-0.6108 1.25499,-0.16975 2.4978,-0.38772 3.76027,-0.5014 1.4498,-0.1104 2.90419,-0.12217 4.35735,-0.132 1.57863,-0.009 3.15725,-0.008 4.7359,-0.005 1.71781,-0.003 3.43123,-0.0394 5.14228,0.12888 2.05947,0.21566 4.1023,0.54063 6.12739,0.96978 2.19678,0.54226 4.38016,1.13805 6.56056,1.74338 1.55029,0.38414 3.08304,0.82892 4.61107,1.29223 0.64042,0.18942 1.28867,0.34501 1.92949,0.53276 0,0 5.00322,-3.41496 5.00322,-3.41496 v 0 c -0.64211,-0.20032 -1.2933,-0.3419 -1.94208,-0.51927 -1.54137,-0.48846 -3.10228,-0.91003 -4.67834,-1.27222 -2.19289,-0.58112 -4.37796,-1.19018 -6.57096,-1.76994 -2.03011,-0.47122 -4.08644,-0.78382 -6.15637,-1.02364 -1.71274,-0.2336 -3.42616,-0.23427 -5.15289,-0.20709 -1.57566,3.6e-4 -3.15127,-0.005 -4.72692,-0.006 -1.4626,0.006 -2.92654,0.0108 -4.38694,0.0996 -1.26558,0.0832 -2.51458,0.24405 -3.76191,0.45784 -1.40754,0.18377 -2.79197,0.50009 -4.20809,0.62295 -1.57297,0.24555 -3.12422,0.60903 -4.73052,0.4736 -1.77086,0.004 -3.54172,0.0172 -5.31258,0.005 -1.53566,-0.0166 -3.07259,-0.0169 -4.60603,-0.11183 -1.81771,-0.13151 -3.61632,-0.40959 -5.43088,-0.56784 -1.7628,-0.17796 -3.51568,-0.43736 -5.28383,-0.56255 -1.72358,0.007 -3.44715,0.008 -5.17073,9.6e-4 -1.51297,-0.005 -3.02612,-0.0199 -4.5389,0.0141 -1.93317,0.035 -3.86884,0.051 -5.79838,0.18193 -1.52823,0.1423 -3.04994,0.29705 -4.58692,0.30959 -1.39447,0.10292 -2.7689,0.29804 -4.13286,0.60802 -1.29044,0.28367 -2.51719,0.77893 -3.76832,1.19826 -2.576643,1.0764 -4.664345,2.48931 -7.213825,3.97829 -0.205545,0.12004 -0.397228,0.26239 -0.59641,0.39272 -0.179805,0.11765 -0.72804,0.45619 -0.540545,0.35122 1.578862,-0.88391 3.143817,-1.79244 4.715726,-2.68866 -2.409261,1.13968 -0.392214,0.17069 -6.082101,3.43822 -0.273109,0.15683 -1.078182,0.65121 -0.804061,0.49615 6.645998,-3.75945 6.259096,-3.54388 4.331463,-2.48923 -1.284866,0.74539 -2.736393,1.1354 -4.195391,1.37832 -1.605619,0.33025 -3.233286,0.52617 -4.831623,0.89305 -1.661395,0.39295 -3.368324,0.60593 -4.99356,1.14137 -1.176303,0.31329 -2.37069,0.54693 -3.523892,0.94109 -2.990563,1.11811 -5.434419,2.0076 -8.190096,4.21558 -1.941505,1.41124 -5.939361,3.91468 3.093427,-1.53828 -1.106344,0.55206 -2.328,0.87414 -3.427552,1.45243 -1.456025,0.70206 -2.9491,1.34578 -4.555804,1.61039 -1.794384,0.36722 -3.623481,0.46869 -5.446424,0.61914 -2.416549,0.0853 -4.82966,0.25546 -7.216253,0.66387 -4.344111,0.75144 -4.582157,0.88768 -9.308551,4.04103 0.03651,0.17776 0.04384,0.36412 0.109531,0.53328 0.220127,0.56689 1.602958,0.35204 2.015469,0.30177 1.278185,0.006 2.556448,0.0186 3.834607,0.004 1.537115,-0.0218 3.084537,-0.0199 4.607446,-0.25196 1.811501,-0.36511 3.563076,-0.97838 5.344419,-1.46185 2.140634,-0.58251 4.279973,-1.17116 6.44382,-1.66335 1.921817,-0.51235 3.873988,-0.96763 5.665361,-1.86017 3.25114,-1.38593 5.744135,-2.95287 8.998302,-4.81631 0.268275,-0.15363 1.068364,-0.62267 0.800363,-0.46857 -1.522059,0.87516 -3.041703,1.75452 -4.562554,2.63179 0,0 4.737609,-3.83295 4.737609,-3.83295 z" />
    <path
       style="fill:#000000;fill-opacity:1;fill-rule:nonzero;stroke:none"
       id="path1760"
       d="m 191.48242,221.74145 c -2.26737,-0.1625 -4.5202,-0.48524 -6.77153,-0.79251 -3.32875,-0.47374 -6.67529,-0.78783 -10.02269,-1.09314 -2.89848,-0.32992 -5.80206,-0.60953 -8.70199,-0.92563 -2.50518,-0.27876 -5.02619,-0.34135 -7.54415,-0.38859 -2.48454,-0.0322 -4.96929,-0.0285 -7.45397,-0.033 -2.05362,-0.008 -4.10726,-0.004 -6.16089,-0.005 -1.71441,-0.003 -3.4288,-0.009 -5.14322,-0.01 -1.06088,0.004 -2.12178,0.002 -3.18266,-0.002 0,0 -4.88027,3.54572 -4.88027,3.54572 v 0 c 1.063,-0.004 2.12604,-0.006 3.18904,-0.002 1.72428,-0.001 3.44853,-0.007 5.17279,-0.0112 2.06222,-0.002 4.12444,-0.001 6.18664,-0.0135 2.48734,-0.007 4.97487,-0.0116 7.46212,0.0144 2.50537,0.0359 5.01346,0.0922 7.50784,0.34919 2.92969,0.3044 5.86531,0.54072 8.79245,0.87247 3.32226,0.30016 6.64178,0.62822 9.94301,1.11285 2.21115,0.32854 4.42561,0.63993 6.64507,0.9047 0,0 4.96241,-3.52217 4.96241,-3.52217 z" />
  </g>
</svg>
