<?xml version="1.0" encoding="UTF-8" standalone="no"?>
<svg
   xmlns:osb="http://www.openswatchbook.org/uri/2009/osb"
   xmlns:dc="http://purl.org/dc/elements/1.1/"
   xmlns:cc="http://creativecommons.org/ns#"
   xmlns:rdf="http://www.w3.org/1999/02/22-rdf-syntax-ns#"
   xmlns:svg="http://www.w3.org/2000/svg"
   xmlns="http://www.w3.org/2000/svg"
   xmlns:xlink="http://www.w3.org/1999/xlink"
   xmlns:sodipodi="http://sodipodi.sourceforge.net/DTD/sodipodi-0.dtd"
   xmlns:inkscape="http://www.inkscape.org/namespaces/inkscape"
   width="16"
   height="16"
   viewBox="0 0 16 16"
   fill="blue"
   version="1.1"
   id="svg4"
   sodipodi:docname="jsdoc-level2.svg"
   inkscape:version="1.0.2-2 (e86c870879, 2021-01-15)">
  <metadata
     id="metadata10">
    <rdf:RDF>
      <cc:Work
         rdf:about="">
        <dc:format>image/svg+xml</dc:format>
        <dc:type
           rdf:resource="http://purl.org/dc/dcmitype/StillImage" />
      </cc:Work>
    </rdf:RDF>
  </metadata>
  <defs
     id="defs8">
    <linearGradient
       id="linearGradient848"
       osb:paint="solid">
      <stop
         style="stop-color:#000000;stop-opacity:1;"
         offset="0"
         id="stop846" />
    </linearGradient>
    <linearGradient
       inkscape:collect="always"
       xlink:href="#linearGradient848"
       id="linearGradient850"
       x1="3.5434534"
       y1="7.9420853"
       x2="12.543454"
       y2="7.9420853"
       gradientUnits="userSpaceOnUse" />
  </defs>
  <sodipodi:namedview
     pagecolor="#ffffff"
     bordercolor="#666666"
     borderopacity="1"
     objecttolerance="10"
     gridtolerance="10"
     guidetolerance="10"
     inkscape:pageopacity="0"
     inkscape:pageshadow="2"
     inkscape:window-width="1920"
     inkscape:window-height="1009"
     id="namedview6"
     showgrid="false"
     inkscape:zoom="52.5625"
     inkscape:cx="5.0558076"
     inkscape:cy="8.2147475"
     inkscape:window-x="1072"
     inkscape:window-y="-8"
     inkscape:window-maximized="1"
     inkscape:current-layer="svg4" />
  <circle
     cx="8"
     cy="8"
     r="7"
     stroke="black"
     stroke-width="1"
     fill="blue"
     id="circle2" />
  <g
     inkscape:groupmode="layer"
     id="layer1"
     inkscape:label="Layer 1">
    <path
       id="path128"
       d="m 11.031919,3.4423188 c -0.179022,-0.0034 -0.275953,0.02837 -0.447837,0.144727 -0.136319,0.136931 -0.136319,0.136931 -0.282823,0.215262 -0.14482,0.08126 -0.270282,0.169131 -0.3959516,0.275408 l -0.05324,0.151949 c -0.154404,0.05737 -0.254533,0.09 -0.372244,0.204181 l -0.100236,0.125042 c -0.141264,0.175247 -0.276615,0.353771 -0.409261,0.534988 -0.119645,0.165312 -0.242681,0.326235 -0.37266,0.484338 -0.08988,0.108172 -0.178898,0.216237 -0.264315,0.32764 -0.106052,0.139169 -0.209797,0.271929 -0.3371,0.394316 -0.146677,0.133495 -0.260113,0.23302 -0.350201,0.4081653 l -0.02994,0.104465 c -0.150516,-0.04449 -0.150529,-0.0445 -0.252669,-0.092 l -0.101484,-0.04867 -0.111985,-0.05352 -0.116144,-0.05589 c -0.07591,-0.03634 -0.151811,-0.07268 -0.227714,-0.109016 -0.106779,-0.05131 -0.213593,-0.102496 -0.320567,-0.153433 l -0.09389,-0.04461 v -0.1013 c -0.196962,-0.14381 -0.332044,-0.255071 -0.449189,-0.465344 -0.07214,-0.131097 -0.146113,-0.259042 -0.226466,-0.385809 l -0.09629,-0.139682 -0.08817,-0.129988 c -0.09816,-0.09477 -0.09816,-0.09477 -0.23624,-0.115149 -0.128102,0.02038 -0.128102,0.02038 -0.234577,0.121678 -0.02962,0.195177 0.0252,0.336315 0.113545,0.512235 l 0.04949,0.0924 c 0.10535,0.197336 0.20561,0.380861 0.38597,0.525491 0.112302,0.07757 0.215217,0.152719 0.317552,0.242565 0.228963,0.20579 0.455991,0.3841353 0.723901,0.5425063 0.186858,0.104955 0.34805,0.202401 0.48579,0.364045 -0.02461,0.241981 -0.06886,0.387634 -0.252877,0.557147 -0.157239,0.134817 -0.278107,0.277263 -0.402606,0.439821 -0.06563,0.08572 -0.132333,0.170695 -0.19964,0.255228 -0.167319,0.209761 -0.333303,0.418956 -0.487869,0.637473 -0.193192,0.275704 -0.385172,0.526602 -0.63344,0.759944 -0.251229,0.2289656 -0.529957,0.4602446 -0.695411,0.7553926 l -0.04326,0.08983 h -0.106474 l -0.07882,0.105849 c -0.125589,0.199325 -0.247179,0.396489 -0.40115,0.577328 -0.153452,0.171809 -0.288477,0.298639 -0.291973,0.532416 0.02662,0.151949 0.02662,0.151949 0.07986,0.202599 0.332732,0.21104 0.332692,0.211062 1.867357,0.209524 0.09349,-1.02e-4 0.18705,-1.52e-4 0.280535,-1.02e-4 0.198913,1.52e-4 0.397823,2.08e-4 0.596735,0 0.253398,-3.12e-4 0.506793,-5.02e-4 0.76019,-2.08e-4 0.986551,0.0011 1.972791,-1.01e-4 2.9590326,-0.02602 l 0.120303,-0.0032 c 0.07767,-0.0019 0.155345,-0.0039 0.233017,-0.0059 l 0.210453,-0.0063 c 0.106475,-0.0032 0.212924,-0.0077 0.319112,-0.01583 0.05324,-0.05065 0.05324,-0.05065 0.09316,-0.145618 0.01331,-0.10763 0.01328,-0.107618 -0.04066,-0.189441 -0.130764,-0.08669 -0.233761,-0.08712 -0.390441,-0.08676 l -0.116664,0.0026 c -0.08468,5.71e-4 -0.169444,0.0011 -0.254125,0.0018 -0.188217,0.0028 -0.3763686,0.0051 -0.5646046,0.0063 -0.09923,6.4e-4 -0.198462,0.0013 -0.297692,0.002 -0.538089,0.0044 -1.075894,0.0022 -1.613961,-0.0038 l -0.141515,-0.0016 c -0.235533,-0.0026 -0.47111,-0.0051 -0.706641,-0.0079 -0.240127,-0.0028 -0.480235,-0.0056 -0.720366,-0.008 -0.192806,-0.0019 -0.385632,-0.004 -0.578435,-0.0062 -0.09127,-0.0011 -0.182501,-0.0021 -0.273776,-0.0032 -0.128608,-0.0012 -0.257262,-0.0025 -0.385866,-0.0042 l -0.117184,-0.0015 c -0.208221,-0.0024 -0.399591,-0.0012 -0.599127,-0.06104 0.05626,-0.08028 0.112319,-0.16063 0.167198,-0.241773 l 0.06655,-0.09912 c 0.05075,-0.07525 0.101489,-0.150495 0.152225,-0.225747 0.221094,-0.33009 0.437163,-0.6804 0.736379,-0.952255 0.09023,-0.06569 0.178746,-0.129383 0.261819,-0.203192 l 0.05324,-0.151949 h 0.106474 c 0.550674,-0.3729076 0.988336,-0.8760216 1.289131,-1.4456936 0.159188,-0.302469 0.327845,-0.65521 0.625953,-0.852339 0.106366,-0.04234 0.106366,-0.04235 0.205047,-9.87e-4 0.183766,0.107026 0.349875,0.184531 0.561694,0.225549 0.26561,0.04959 0.520598,0.121921 0.778594,0.199434 l 0.174477,0.05658 0.181547,0.05738 c 0.375563,0.122812 0.6605776,0.07346 1.0123386,-0.0826 l 0.102315,-0.04719 c 0.188603,-0.08269 0.365052,-0.167146 0.532164,-0.286092 l 0.126646,-0.10328 c 0.234805,-0.175917 0.469025,-0.351748 0.687093,-0.546463 0.335769,-0.343898 0.456446,-0.7518433 0.460419,-1.2138123 l -0.0029,-0.154917 c -0.0043,-0.405156 -0.02683,-0.765328 -0.179676,-1.146544 l -0.05989,-0.129196 c -0.04381,-0.108113 -0.08853,-0.210261 -0.146402,-0.312208 -0.237545,-0.331938 -0.614694,-0.691395 -1.040413,-0.775574 -0.02938,-0.0018 -0.05667,-0.003 -0.08225,-0.0035 z m 0.204319,0.584747 c 0.150761,0.101997 0.274476,0.199921 0.390129,0.337137 0.371548,0.527997 0.561703,1.104551 0.461666,1.739501 -0.242893,0.6948913 -0.770459,1.1470353 -1.430958,1.4822963 l -0.112921,0.05619 c -0.33285,0.170796 -0.5873276,0.234827 -0.9682516,0.16105 l -0.09649,-0.03443 -0.118744,-0.04155 c -0.08258,-0.02992 -0.165262,-0.05958 -0.248405,-0.08804 -0.07541,-0.02563 -0.150771,-0.0514 -0.226051,-0.07736 l -0.11552,-0.03996 c -0.138691,-0.04732 -0.273169,-0.09761 -0.409262,-0.151949 -0.131536,-0.0744 -0.195859,-0.111934 -0.253292,-0.246522 -0.02408,-0.109549 -0.02404,-0.109549 0.04014,-0.200423 0.121643,-0.138964 0.240955,-0.2787693 0.351137,-0.4261703 l 0.08245,-0.114555 c 0.05524,-0.07593 0.110422,-0.151907 0.165535,-0.227924 l 0.08526,-0.118908 0.08194,-0.112181 c 0.06869,-0.0991 0.06869,-0.0991 0.138916,-0.174109 h 0.106475 c -0.0088,-0.107271 -0.0088,-0.107271 0.06426,-0.209128 l 0.08547,-0.12326 c 0.0804,-0.122668 0.0804,-0.122668 0.169694,-0.224759 l 0.159712,-0.05065 c 0,-0.170445 0.09907,-0.282178 0.212948,-0.405198 0.3115176,-0.252384 0.9512586,-0.709096 1.3841676,-0.709096 z"
       style="stroke-width:0.0519275;fill-opacity:1;fill:url(#linearGradient850)" />
  </g>
</svg>
